G04 #@! TF.GenerationSoftware,KiCad,Pcbnew,5.99.0-unknown-r23941-4f651901*
G04 #@! TF.CreationDate,2020-11-30T00:39:53+01:00*
G04 #@! TF.ProjectId,whisperbounce,77686973-7065-4726-926f-756e63652e6b,rev?*
G04 #@! TF.SameCoordinates,Original*
G04 #@! TF.FileFunction,Legend,Top*
G04 #@! TF.FilePolarity,Positive*
%FSLAX46Y46*%
G04 Gerber Fmt 4.6, Leading zero omitted, Abs format (unit mm)*
G04 Created by KiCad (PCBNEW 5.99.0-unknown-r23941-4f651901) date 2020-11-30 00:39:53*
%MOMM*%
%LPD*%
G01*
G04 APERTURE LIST*
%ADD10C,0.150000*%
%ADD11C,0.250000*%
%ADD12C,0.120000*%
%ADD13C,0.100000*%
G04 APERTURE END LIST*
D10*
X164341428Y-97575714D02*
X164579523Y-98242380D01*
X164817619Y-97575714D01*
X165722380Y-98242380D02*
X165150952Y-98242380D01*
X165436666Y-98242380D02*
X165436666Y-97242380D01*
X165341428Y-97385238D01*
X165246190Y-97480476D01*
X165150952Y-97528095D01*
X166150952Y-98147142D02*
X166198571Y-98194761D01*
X166150952Y-98242380D01*
X166103333Y-98194761D01*
X166150952Y-98147142D01*
X166150952Y-98242380D01*
X166817619Y-97242380D02*
X166912857Y-97242380D01*
X167008095Y-97290000D01*
X167055714Y-97337619D01*
X167103333Y-97432857D01*
X167150952Y-97623333D01*
X167150952Y-97861428D01*
X167103333Y-98051904D01*
X167055714Y-98147142D01*
X167008095Y-98194761D01*
X166912857Y-98242380D01*
X166817619Y-98242380D01*
X166722380Y-98194761D01*
X166674761Y-98147142D01*
X166627142Y-98051904D01*
X166579523Y-97861428D01*
X166579523Y-97623333D01*
X166627142Y-97432857D01*
X166674761Y-97337619D01*
X166722380Y-97290000D01*
X166817619Y-97242380D01*
X114468571Y-73713333D02*
X114516190Y-73570476D01*
X114563809Y-73522857D01*
X114659047Y-73475238D01*
X114801904Y-73475238D01*
X114897142Y-73522857D01*
X114944761Y-73570476D01*
X114992380Y-73665714D01*
X114992380Y-74046666D01*
X113992380Y-74046666D01*
X113992380Y-73713333D01*
X114040000Y-73618095D01*
X114087619Y-73570476D01*
X114182857Y-73522857D01*
X114278095Y-73522857D01*
X114373333Y-73570476D01*
X114420952Y-73618095D01*
X114468571Y-73713333D01*
X114468571Y-74046666D01*
X113992380Y-72856190D02*
X113992380Y-72665714D01*
X114040000Y-72570476D01*
X114135238Y-72475238D01*
X114325714Y-72427619D01*
X114659047Y-72427619D01*
X114849523Y-72475238D01*
X114944761Y-72570476D01*
X114992380Y-72665714D01*
X114992380Y-72856190D01*
X114944761Y-72951428D01*
X114849523Y-73046666D01*
X114659047Y-73094285D01*
X114325714Y-73094285D01*
X114135238Y-73046666D01*
X114040000Y-72951428D01*
X113992380Y-72856190D01*
X113992380Y-71808571D02*
X113992380Y-71618095D01*
X114040000Y-71522857D01*
X114135238Y-71427619D01*
X114325714Y-71380000D01*
X114659047Y-71380000D01*
X114849523Y-71427619D01*
X114944761Y-71522857D01*
X114992380Y-71618095D01*
X114992380Y-71808571D01*
X114944761Y-71903809D01*
X114849523Y-71999047D01*
X114659047Y-72046666D01*
X114325714Y-72046666D01*
X114135238Y-71999047D01*
X114040000Y-71903809D01*
X113992380Y-71808571D01*
X113992380Y-71094285D02*
X113992380Y-70522857D01*
X114992380Y-70808571D02*
X113992380Y-70808571D01*
X113992380Y-69999047D02*
X113992380Y-69903809D01*
X114040000Y-69808571D01*
X114087619Y-69760952D01*
X114182857Y-69713333D01*
X114373333Y-69665714D01*
X114611428Y-69665714D01*
X114801904Y-69713333D01*
X114897142Y-69760952D01*
X114944761Y-69808571D01*
X114992380Y-69903809D01*
X114992380Y-69999047D01*
X114944761Y-70094285D01*
X114897142Y-70141904D01*
X114801904Y-70189523D01*
X114611428Y-70237142D01*
X114373333Y-70237142D01*
X114182857Y-70189523D01*
X114087619Y-70141904D01*
X114040000Y-70094285D01*
X113992380Y-69999047D01*
D11*
X126591428Y-95237142D02*
X127305714Y-98237142D01*
X127877142Y-96094285D01*
X128448571Y-98237142D01*
X129162857Y-95237142D01*
X130305714Y-98237142D02*
X130305714Y-95237142D01*
X130305714Y-96665714D02*
X132019999Y-96665714D01*
X132019999Y-98237142D02*
X132019999Y-95237142D01*
X133448571Y-98237142D02*
X133448571Y-95237142D01*
X134734285Y-98094285D02*
X135162857Y-98237142D01*
X135877142Y-98237142D01*
X136162857Y-98094285D01*
X136305714Y-97951428D01*
X136448571Y-97665714D01*
X136448571Y-97380000D01*
X136305714Y-97094285D01*
X136162857Y-96951428D01*
X135877142Y-96808571D01*
X135305714Y-96665714D01*
X135020000Y-96522857D01*
X134877142Y-96380000D01*
X134734285Y-96094285D01*
X134734285Y-95808571D01*
X134877142Y-95522857D01*
X135020000Y-95380000D01*
X135305714Y-95237142D01*
X136020000Y-95237142D01*
X136448571Y-95380000D01*
X137734285Y-98237142D02*
X137734285Y-95237142D01*
X138877142Y-95237142D01*
X139162857Y-95380000D01*
X139305714Y-95522857D01*
X139448571Y-95808571D01*
X139448571Y-96237142D01*
X139305714Y-96522857D01*
X139162857Y-96665714D01*
X138877142Y-96808571D01*
X137734285Y-96808571D01*
X140734285Y-96665714D02*
X141734285Y-96665714D01*
X142162857Y-98237142D02*
X140734285Y-98237142D01*
X140734285Y-95237142D01*
X142162857Y-95237142D01*
X145162857Y-98237142D02*
X144162857Y-96808571D01*
X143448571Y-98237142D02*
X143448571Y-95237142D01*
X144591428Y-95237142D01*
X144877142Y-95380000D01*
X145020000Y-95522857D01*
X145162857Y-95808571D01*
X145162857Y-96237142D01*
X145020000Y-96522857D01*
X144877142Y-96665714D01*
X144591428Y-96808571D01*
X143448571Y-96808571D01*
X147448571Y-96665714D02*
X147877142Y-96808571D01*
X148020000Y-96951428D01*
X148162857Y-97237142D01*
X148162857Y-97665714D01*
X148020000Y-97951428D01*
X147877142Y-98094285D01*
X147591428Y-98237142D01*
X146448571Y-98237142D01*
X146448571Y-95237142D01*
X147448571Y-95237142D01*
X147734285Y-95380000D01*
X147877142Y-95522857D01*
X148020000Y-95808571D01*
X148020000Y-96094285D01*
X147877142Y-96380000D01*
X147734285Y-96522857D01*
X147448571Y-96665714D01*
X146448571Y-96665714D01*
X150020000Y-95237142D02*
X150591428Y-95237142D01*
X150877142Y-95380000D01*
X151162857Y-95665714D01*
X151305714Y-96237142D01*
X151305714Y-97237142D01*
X151162857Y-97808571D01*
X150877142Y-98094285D01*
X150591428Y-98237142D01*
X150020000Y-98237142D01*
X149734285Y-98094285D01*
X149448571Y-97808571D01*
X149305714Y-97237142D01*
X149305714Y-96237142D01*
X149448571Y-95665714D01*
X149734285Y-95380000D01*
X150020000Y-95237142D01*
X152591428Y-95237142D02*
X152591428Y-97665714D01*
X152734285Y-97951428D01*
X152877142Y-98094285D01*
X153162857Y-98237142D01*
X153734285Y-98237142D01*
X154020000Y-98094285D01*
X154162857Y-97951428D01*
X154305714Y-97665714D01*
X154305714Y-95237142D01*
X155734285Y-98237142D02*
X155734285Y-95237142D01*
X157448571Y-98237142D01*
X157448571Y-95237142D01*
X160591428Y-97951428D02*
X160448571Y-98094285D01*
X160020000Y-98237142D01*
X159734285Y-98237142D01*
X159305714Y-98094285D01*
X159020000Y-97808571D01*
X158877142Y-97522857D01*
X158734285Y-96951428D01*
X158734285Y-96522857D01*
X158877142Y-95951428D01*
X159020000Y-95665714D01*
X159305714Y-95380000D01*
X159734285Y-95237142D01*
X160020000Y-95237142D01*
X160448571Y-95380000D01*
X160591428Y-95522857D01*
X161877142Y-96665714D02*
X162877142Y-96665714D01*
X163305714Y-98237142D02*
X161877142Y-98237142D01*
X161877142Y-95237142D01*
X163305714Y-95237142D01*
D12*
G04 #@! TO.C,C13*
X155887836Y-62325000D02*
X155672164Y-62325000D01*
X155887836Y-63045000D02*
X155672164Y-63045000D01*
G04 #@! TO.C,U8*
X137200000Y-55250000D02*
X140700000Y-55250000D01*
X140700000Y-51550000D02*
X137000000Y-51550000D01*
G04 #@! TO.C,C21*
X159932164Y-63200000D02*
X160147836Y-63200000D01*
X159932164Y-62480000D02*
X160147836Y-62480000D01*
G04 #@! TO.C,C47*
X113749414Y-67816251D02*
X113533742Y-67816251D01*
X113749414Y-68536251D02*
X113533742Y-68536251D01*
G04 #@! TO.C,C84*
X151297836Y-72850000D02*
X151082164Y-72850000D01*
X151297836Y-72130000D02*
X151082164Y-72130000D01*
G04 #@! TO.C,R17*
X130380000Y-56646359D02*
X130380000Y-56953641D01*
X129620000Y-56646359D02*
X129620000Y-56953641D01*
G04 #@! TO.C,C12*
X157967835Y-63330000D02*
X157752163Y-63330000D01*
X157967835Y-62610000D02*
X157752163Y-62610000D01*
G04 #@! TO.C,FB4*
X150662742Y-70572500D02*
X151137258Y-70572500D01*
X150662742Y-69527500D02*
X151137258Y-69527500D01*
G04 #@! TO.C,FB6*
X138242500Y-56712742D02*
X138242500Y-57187258D01*
X137197500Y-56712742D02*
X137197500Y-57187258D01*
G04 #@! TO.C,C23*
X156692164Y-61160000D02*
X156907836Y-61160000D01*
X156692164Y-60440000D02*
X156907836Y-60440000D01*
G04 #@! TO.C,R18*
X128120000Y-56646359D02*
X128120000Y-56953641D01*
X128880000Y-56646359D02*
X128880000Y-56953641D01*
G04 #@! TO.C,C67*
X134680000Y-61152164D02*
X134680000Y-61367836D01*
X133960000Y-61152164D02*
X133960000Y-61367836D01*
G04 #@! TO.C,R32*
X126733641Y-68900000D02*
X126426359Y-68900000D01*
X126733641Y-68140000D02*
X126426359Y-68140000D01*
G04 #@! TO.C,C62*
X133040000Y-61152164D02*
X133040000Y-61367836D01*
X133760000Y-61152164D02*
X133760000Y-61367836D01*
G04 #@! TO.C,C68*
X126482164Y-67230000D02*
X126697836Y-67230000D01*
X126482164Y-67950000D02*
X126697836Y-67950000D01*
G04 #@! TO.C,C76*
X140117164Y-57285000D02*
X140332836Y-57285000D01*
X140117164Y-56565000D02*
X140332836Y-56565000D01*
G04 #@! TO.C,R22*
X136655000Y-52653641D02*
X136655000Y-52346359D01*
X135895000Y-52653641D02*
X135895000Y-52346359D01*
G04 #@! TO.C,C42*
X145860000Y-56057836D02*
X145860000Y-55842164D01*
X145140000Y-56057836D02*
X145140000Y-55842164D01*
D13*
G04 #@! TO.C,D1*
X179710000Y-69930000D02*
G75*
G03*
X179710000Y-69930000I-50000J0D01*
G01*
D12*
G04 #@! TO.C,R29*
X141345000Y-68378641D02*
X141345000Y-68071359D01*
X142105000Y-68378641D02*
X142105000Y-68071359D01*
G04 #@! TO.C,C40*
X143492164Y-58760000D02*
X143707836Y-58760000D01*
X143492164Y-58040000D02*
X143707836Y-58040000D01*
G04 #@! TO.C,C8*
X166617836Y-63320000D02*
X166402164Y-63320000D01*
X166617836Y-64040000D02*
X166402164Y-64040000D01*
G04 #@! TO.C,C35*
X152090000Y-56057836D02*
X152090000Y-55842164D01*
X152810000Y-56057836D02*
X152810000Y-55842164D01*
G04 #@! TO.C,R20*
X113446359Y-61580000D02*
X113753641Y-61580000D01*
X113446359Y-60820000D02*
X113753641Y-60820000D01*
G04 #@! TO.C,X1*
X141175000Y-57550000D02*
X139325000Y-57550000D01*
X141175000Y-59000000D02*
X141175000Y-57550000D01*
G04 #@! TO.C,C74*
X134040000Y-54237164D02*
X134040000Y-54452836D01*
X134760000Y-54237164D02*
X134760000Y-54452836D01*
G04 #@! TO.C,C52*
X121007836Y-69840000D02*
X120792164Y-69840000D01*
X121007836Y-70560000D02*
X120792164Y-70560000D01*
G04 #@! TO.C,R35*
X145020000Y-88296359D02*
X145020000Y-88603641D01*
X145780000Y-88296359D02*
X145780000Y-88603641D01*
G04 #@! TO.C,C37*
X157572164Y-58150000D02*
X157787836Y-58150000D01*
X157572164Y-57430000D02*
X157787836Y-57430000D01*
G04 #@! TO.C,R8*
X169210000Y-67996359D02*
X169210000Y-68303641D01*
X168450000Y-67996359D02*
X168450000Y-68303641D01*
G04 #@! TO.C,C14*
X157967836Y-64250000D02*
X157752164Y-64250000D01*
X157967836Y-63530000D02*
X157752164Y-63530000D01*
G04 #@! TO.C,C33*
X150540000Y-68292164D02*
X150540000Y-68507836D01*
X151260000Y-68292164D02*
X151260000Y-68507836D01*
G04 #@! TO.C,C2*
X169260000Y-54327836D02*
X169260000Y-54112164D01*
X169980000Y-54327836D02*
X169980000Y-54112164D01*
D10*
G04 #@! TO.C,U3*
X168000000Y-66370000D02*
X168750000Y-66370000D01*
X168000000Y-60370000D02*
X169500000Y-60370000D01*
D12*
G04 #@! TO.C,U7*
X121855000Y-61640000D02*
X122330000Y-61640000D01*
X122330000Y-61640000D02*
X122330000Y-62115000D01*
X115585000Y-68860000D02*
X115110000Y-68860000D01*
X121855000Y-68860000D02*
X122330000Y-68860000D01*
X122330000Y-68860000D02*
X122330000Y-68385000D01*
X115585000Y-61640000D02*
X115110000Y-61640000D01*
X115110000Y-68860000D02*
X115110000Y-68385000D01*
G04 #@! TO.C,C81*
X150142164Y-92840000D02*
X150357836Y-92840000D01*
X150142164Y-93560000D02*
X150357836Y-93560000D01*
G04 #@! TO.C,R37*
X176516359Y-70320000D02*
X176823641Y-70320000D01*
X176516359Y-69560000D02*
X176823641Y-69560000D01*
G04 #@! TO.C,C78*
X138757836Y-72130000D02*
X138542164Y-72130000D01*
X138757836Y-72850000D02*
X138542164Y-72850000D01*
G04 #@! TO.C,C49*
X112777836Y-63535000D02*
X112562164Y-63535000D01*
X112777836Y-62815000D02*
X112562164Y-62815000D01*
G04 #@! TO.C,C41*
X146090000Y-56057836D02*
X146090000Y-55842164D01*
X146810000Y-56057836D02*
X146810000Y-55842164D01*
G04 #@! TO.C,C32*
X144757836Y-68210000D02*
X144542164Y-68210000D01*
X144757836Y-67490000D02*
X144542164Y-67490000D01*
G04 #@! TO.C,R10*
X155020000Y-56996359D02*
X155020000Y-57303641D01*
X155780000Y-56996359D02*
X155780000Y-57303641D01*
G04 #@! TO.C,C50*
X112562164Y-66710000D02*
X112777836Y-66710000D01*
X112562164Y-65990000D02*
X112777836Y-65990000D01*
G04 #@! TO.C,FB8*
X131872500Y-57202742D02*
X131872500Y-57677258D01*
X130827500Y-57202742D02*
X130827500Y-57677258D01*
G04 #@! TO.C,C1*
X162272164Y-59030000D02*
X162487836Y-59030000D01*
X162272164Y-58310000D02*
X162487836Y-58310000D01*
G04 #@! TO.C,Y2*
X113470000Y-65750000D02*
X113470000Y-63900000D01*
X112020000Y-65750000D02*
X113470000Y-65750000D01*
G04 #@! TO.C,C25*
X143607836Y-61140000D02*
X143392164Y-61140000D01*
X143607836Y-61860000D02*
X143392164Y-61860000D01*
G04 #@! TO.C,R15*
X154680000Y-68146359D02*
X154680000Y-68453641D01*
X153920000Y-68146359D02*
X153920000Y-68453641D01*
G04 #@! TO.C,C48*
X123190000Y-61757836D02*
X123190000Y-61542164D01*
X123910000Y-61757836D02*
X123910000Y-61542164D01*
G04 #@! TO.C,R34*
X144830000Y-87053641D02*
X144830000Y-86746359D01*
X144070000Y-87053641D02*
X144070000Y-86746359D01*
G04 #@! TO.C,C46*
X122692164Y-70260000D02*
X122907836Y-70260000D01*
X122692164Y-69540000D02*
X122907836Y-69540000D01*
G04 #@! TO.C,C60*
X126752164Y-63760000D02*
X126967836Y-63760000D01*
X126752164Y-64480000D02*
X126967836Y-64480000D01*
G04 #@! TO.C,C36*
X144190000Y-56057836D02*
X144190000Y-55842164D01*
X144910000Y-56057836D02*
X144910000Y-55842164D01*
G04 #@! TO.C,C5*
X166617836Y-64960000D02*
X166402164Y-64960000D01*
X166617836Y-64240000D02*
X166402164Y-64240000D01*
G04 #@! TO.C,R31*
X140205000Y-68378641D02*
X140205000Y-68071359D01*
X139445000Y-68378641D02*
X139445000Y-68071359D01*
G04 #@! TO.C,C63*
X138677836Y-70240000D02*
X138462164Y-70240000D01*
X138677836Y-69520000D02*
X138462164Y-69520000D01*
G04 #@! TO.C,L1*
X147100000Y-67700000D02*
X149100000Y-67700000D01*
X147100000Y-69900000D02*
X149100000Y-69900000D01*
G04 #@! TO.C,C29*
X143557836Y-63860000D02*
X143342164Y-63860000D01*
X143557836Y-63140000D02*
X143342164Y-63140000D01*
G04 #@! TO.C,R7*
X162183641Y-64670000D02*
X161876359Y-64670000D01*
X162183641Y-65430000D02*
X161876359Y-65430000D01*
G04 #@! TO.C,C75*
X129820000Y-61087164D02*
X129820000Y-61302836D01*
X129100000Y-61087164D02*
X129100000Y-61302836D01*
G04 #@! TO.C,R11*
X154020000Y-55171359D02*
X154020000Y-55478641D01*
X154780000Y-55171359D02*
X154780000Y-55478641D01*
G04 #@! TO.C,C45*
X115392164Y-60290000D02*
X115607836Y-60290000D01*
X115392164Y-61010000D02*
X115607836Y-61010000D01*
G04 #@! TO.C,U2*
X161350000Y-64180000D02*
X161350000Y-63830000D01*
X161700000Y-64180000D02*
X161350000Y-64180000D01*
X164050000Y-63830000D02*
X164050000Y-64180000D01*
X161700000Y-59480000D02*
X161350000Y-59480000D01*
X163700000Y-59480000D02*
X164050000Y-59480000D01*
X164050000Y-64180000D02*
X163700000Y-64180000D01*
X164050000Y-59480000D02*
X164050000Y-59830000D01*
G04 #@! TO.C,C71*
X138477836Y-69320000D02*
X138262164Y-69320000D01*
X138477836Y-68600000D02*
X138262164Y-68600000D01*
G04 #@! TO.C,C44*
X113807836Y-62560000D02*
X113592164Y-62560000D01*
X113807836Y-61840000D02*
X113592164Y-61840000D01*
G04 #@! TO.C,C64*
X138505810Y-66078307D02*
X138353307Y-66230810D01*
X137996693Y-65569190D02*
X137844190Y-65721693D01*
G04 #@! TO.C,C82*
X153817836Y-93560000D02*
X153602164Y-93560000D01*
X153817836Y-92840000D02*
X153602164Y-92840000D01*
G04 #@! TO.C,U9*
X136760000Y-71110000D02*
X136010000Y-71110000D01*
X136760000Y-62890000D02*
X136010000Y-62890000D01*
X136760000Y-63640000D02*
X136760000Y-62890000D01*
X128540000Y-63640000D02*
X128540000Y-62890000D01*
X128540000Y-70360000D02*
X128540000Y-71110000D01*
X128540000Y-62890000D02*
X129290000Y-62890000D01*
X136760000Y-70360000D02*
X136760000Y-71110000D01*
G04 #@! TO.C,RN4*
X141330000Y-62180000D02*
X140830000Y-62180000D01*
X141330000Y-59820000D02*
X140830000Y-59820000D01*
G04 #@! TO.C,R19*
X123603641Y-56730000D02*
X123296359Y-56730000D01*
X123603641Y-55970000D02*
X123296359Y-55970000D01*
G04 #@! TO.C,RN2*
X141330000Y-64850000D02*
X140830000Y-64850000D01*
X141330000Y-67210000D02*
X140830000Y-67210000D01*
G04 #@! TO.C,RN3*
X141330000Y-64690000D02*
X140830000Y-64690000D01*
X141330000Y-62330000D02*
X140830000Y-62330000D01*
G04 #@! TO.C,C6*
X166617836Y-61240000D02*
X166402164Y-61240000D01*
X166617836Y-61960000D02*
X166402164Y-61960000D01*
G04 #@! TO.C,C9*
X166617836Y-60320000D02*
X166402164Y-60320000D01*
X166617836Y-61040000D02*
X166402164Y-61040000D01*
G04 #@! TO.C,Y1*
X160690000Y-67270000D02*
X162540000Y-67270000D01*
X160690000Y-65820000D02*
X160690000Y-67270000D01*
G04 #@! TO.C,R1*
X171270000Y-70896359D02*
X171270000Y-71203641D01*
X172030000Y-70896359D02*
X172030000Y-71203641D01*
G04 #@! TO.C,C15*
X159760000Y-66362164D02*
X159760000Y-66577836D01*
X160480000Y-66362164D02*
X160480000Y-66577836D01*
G04 #@! TO.C,C57*
X133550000Y-73217836D02*
X133550000Y-73002164D01*
X134270000Y-73217836D02*
X134270000Y-73002164D01*
G04 #@! TO.C,C69*
X136857836Y-72430000D02*
X136642164Y-72430000D01*
X136857836Y-71710000D02*
X136642164Y-71710000D01*
G04 #@! TO.C,R16*
X144803641Y-69180000D02*
X144496359Y-69180000D01*
X144803641Y-68420000D02*
X144496359Y-68420000D01*
G04 #@! TO.C,C54*
X132080000Y-73167836D02*
X132080000Y-72952164D01*
X132800000Y-73167836D02*
X132800000Y-72952164D01*
G04 #@! TO.C,FB10*
X168862742Y-94182500D02*
X169337258Y-94182500D01*
X168862742Y-93137500D02*
X169337258Y-93137500D01*
G04 #@! TO.C,C30*
X155040000Y-65242164D02*
X155040000Y-65457836D01*
X155760000Y-65242164D02*
X155760000Y-65457836D01*
G04 #@! TO.C,C61*
X127190000Y-71667836D02*
X127190000Y-71452164D01*
X127910000Y-71667836D02*
X127910000Y-71452164D01*
G04 #@! TO.C,U6*
X153795000Y-57620000D02*
X154270000Y-57620000D01*
X153795000Y-66840000D02*
X154270000Y-66840000D01*
X145525000Y-57620000D02*
X145050000Y-57620000D01*
X145050000Y-66840000D02*
X145050000Y-66365000D01*
X145525000Y-66840000D02*
X145050000Y-66840000D01*
X154270000Y-57620000D02*
X154270000Y-58095000D01*
X154270000Y-66840000D02*
X154270000Y-66365000D01*
G04 #@! TO.C,C19*
X163610000Y-55372164D02*
X163610000Y-55587836D01*
X162890000Y-55372164D02*
X162890000Y-55587836D01*
G04 #@! TO.C,U4*
X167375000Y-67310000D02*
X167850000Y-67310000D01*
X164105000Y-71530000D02*
X163630000Y-71530000D01*
X167850000Y-71530000D02*
X167850000Y-71055000D01*
X167850000Y-67310000D02*
X167850000Y-67785000D01*
X163630000Y-71530000D02*
X163630000Y-71055000D01*
X164105000Y-67310000D02*
X163630000Y-67310000D01*
X167375000Y-71530000D02*
X167850000Y-71530000D01*
G04 #@! TO.C,C55*
X141265000Y-53232836D02*
X141265000Y-53017164D01*
X141985000Y-53232836D02*
X141985000Y-53017164D01*
G04 #@! TO.C,C80*
X139717836Y-92810000D02*
X139502164Y-92810000D01*
X139717836Y-93530000D02*
X139502164Y-93530000D01*
G04 #@! TO.C,C65*
X132830000Y-61152164D02*
X132830000Y-61367836D01*
X132110000Y-61152164D02*
X132110000Y-61367836D01*
G04 #@! TO.C,C70*
X136347836Y-62300000D02*
X136132164Y-62300000D01*
X136347836Y-61580000D02*
X136132164Y-61580000D01*
G04 #@! TO.C,R28*
X142295000Y-68378641D02*
X142295000Y-68071359D01*
X143055000Y-68378641D02*
X143055000Y-68071359D01*
G04 #@! TO.C,R27*
X145020000Y-76096359D02*
X145020000Y-76403641D01*
X145780000Y-76096359D02*
X145780000Y-76403641D01*
G04 #@! TO.C,C73*
X135685000Y-54242164D02*
X135685000Y-54457836D01*
X134965000Y-54242164D02*
X134965000Y-54457836D01*
G04 #@! TO.C,R36*
X145780000Y-78646359D02*
X145780000Y-78953641D01*
X145020000Y-78646359D02*
X145020000Y-78953641D01*
G04 #@! TO.C,C43*
X147986252Y-70340000D02*
X147463748Y-70340000D01*
X147986252Y-71810000D02*
X147463748Y-71810000D01*
G04 #@! TO.C,FB2*
X171657258Y-57122500D02*
X171182742Y-57122500D01*
X171657258Y-56077500D02*
X171182742Y-56077500D01*
G04 #@! TO.C,R12*
X155690000Y-67973641D02*
X155690000Y-67666359D01*
X154930000Y-67973641D02*
X154930000Y-67666359D01*
G04 #@! TO.C,C79*
X136012164Y-93520000D02*
X136227836Y-93520000D01*
X136012164Y-92800000D02*
X136227836Y-92800000D01*
G04 #@! TO.C,C20*
X143357836Y-58990000D02*
X143142164Y-58990000D01*
X143357836Y-59710000D02*
X143142164Y-59710000D01*
G04 #@! TO.C,C7*
X161730000Y-55372164D02*
X161730000Y-55587836D01*
X161010000Y-55372164D02*
X161010000Y-55587836D01*
G04 #@! TO.C,C17*
X164697836Y-72840000D02*
X164482164Y-72840000D01*
X164697836Y-72120000D02*
X164482164Y-72120000D01*
G04 #@! TO.C,R2*
X170330000Y-71203641D02*
X170330000Y-70896359D01*
X171090000Y-71203641D02*
X171090000Y-70896359D01*
G04 #@! TO.C,U5*
X157600000Y-69540000D02*
X158400000Y-69540000D01*
X157600000Y-72660000D02*
X156800000Y-72660000D01*
X157600000Y-72660000D02*
X158400000Y-72660000D01*
X157600000Y-69540000D02*
X155800000Y-69540000D01*
G04 #@! TO.C,R30*
X140395000Y-68378641D02*
X140395000Y-68071359D01*
X141155000Y-68378641D02*
X141155000Y-68071359D01*
G04 #@! TO.C,R21*
X119070000Y-70146359D02*
X119070000Y-70453641D01*
X119830000Y-70146359D02*
X119830000Y-70453641D01*
G04 #@! TO.C,J1*
X171410000Y-68330000D02*
X178670000Y-68330000D01*
X171410000Y-58430000D02*
X178670000Y-58430000D01*
X171410000Y-68330000D02*
X171410000Y-66830000D01*
X171410000Y-59930000D02*
X171410000Y-58430000D01*
G04 #@! TO.C,R5*
X169463641Y-70210000D02*
X169156359Y-70210000D01*
X169463641Y-70970000D02*
X169156359Y-70970000D01*
G04 #@! TO.C,C22*
X153115000Y-54232836D02*
X153115000Y-54017164D01*
X153835000Y-54232836D02*
X153835000Y-54017164D01*
G04 #@! TO.C,C4*
X162890000Y-66567836D02*
X162890000Y-66352164D01*
X163610000Y-66567836D02*
X163610000Y-66352164D01*
G04 #@! TO.C,C59*
X126492164Y-69090000D02*
X126707836Y-69090000D01*
X126492164Y-69810000D02*
X126707836Y-69810000D01*
G04 #@! TO.C,C38*
X160542164Y-70535000D02*
X160757836Y-70535000D01*
X160542164Y-69815000D02*
X160757836Y-69815000D01*
G04 #@! TO.C,C26*
X152215000Y-54232836D02*
X152215000Y-54017164D01*
X152935000Y-54232836D02*
X152935000Y-54017164D01*
G04 #@! TO.C,C72*
X136635000Y-54242164D02*
X136635000Y-54457836D01*
X135915000Y-54242164D02*
X135915000Y-54457836D01*
G04 #@! TO.C,C3*
X168340000Y-54327836D02*
X168340000Y-54112164D01*
X169060000Y-54327836D02*
X169060000Y-54112164D01*
G04 #@! TO.C,FB7*
X135697500Y-56712742D02*
X135697500Y-57187258D01*
X136742500Y-56712742D02*
X136742500Y-57187258D01*
G04 #@! TO.C,C11*
X155887836Y-62135000D02*
X155672164Y-62135000D01*
X155887836Y-61415000D02*
X155672164Y-61415000D01*
G04 #@! TO.C,FB5*
X133332500Y-57202742D02*
X133332500Y-57677258D01*
X132287500Y-57202742D02*
X132287500Y-57677258D01*
G04 #@! TO.C,R23*
X130790000Y-61323641D02*
X130790000Y-61016359D01*
X130030000Y-61323641D02*
X130030000Y-61016359D01*
G04 #@! TO.C,C66*
X131390000Y-73187836D02*
X131390000Y-72972164D01*
X130670000Y-73187836D02*
X130670000Y-72972164D01*
G04 #@! TO.C,C27*
X147040000Y-56057836D02*
X147040000Y-55842164D01*
X147760000Y-56057836D02*
X147760000Y-55842164D01*
G04 #@! TO.C,C39*
X155742164Y-58190000D02*
X155957836Y-58190000D01*
X155742164Y-58910000D02*
X155957836Y-58910000D01*
G04 #@! TO.C,C24*
X151260000Y-56057836D02*
X151260000Y-55842164D01*
X150540000Y-56057836D02*
X150540000Y-55842164D01*
G04 #@! TO.C,C10*
X162670000Y-55372164D02*
X162670000Y-55587836D01*
X161950000Y-55372164D02*
X161950000Y-55587836D01*
G04 #@! TO.C,U1*
X164220000Y-56390000D02*
X167720000Y-56390000D01*
X167720000Y-52690000D02*
X164020000Y-52690000D01*
G04 #@! TO.C,R24*
X144070000Y-79928641D02*
X144070000Y-79621359D01*
X144830000Y-79928641D02*
X144830000Y-79621359D01*
G04 #@! TO.C,C51*
X113042164Y-66890000D02*
X113257836Y-66890000D01*
X113042164Y-67610000D02*
X113257836Y-67610000D01*
G04 #@! TO.C,FB3*
X157687258Y-55622500D02*
X157212742Y-55622500D01*
X157687258Y-54577500D02*
X157212742Y-54577500D01*
G04 #@! TO.C,J3*
X143560000Y-91320000D02*
X119680000Y-91320000D01*
X136090000Y-92050000D02*
X136590000Y-91450000D01*
X119670000Y-74330000D02*
X143560000Y-74330000D01*
X110340000Y-74330000D02*
X116680000Y-74330000D01*
X110340000Y-91320000D02*
X116670000Y-91320000D01*
X137090000Y-92050000D02*
X136590000Y-91450000D01*
X143560000Y-74330000D02*
X143560000Y-91320000D01*
X137090000Y-92050000D02*
X136090000Y-92050000D01*
X110340000Y-74330000D02*
X110340000Y-91320000D01*
G04 #@! TO.C,R33*
X144830000Y-77403641D02*
X144830000Y-77096359D01*
X144070000Y-77403641D02*
X144070000Y-77096359D01*
G04 #@! TO.C,C56*
X126472164Y-67030000D02*
X126687836Y-67030000D01*
X126472164Y-66310000D02*
X126687836Y-66310000D01*
G04 #@! TO.C,FB9*
X120407258Y-93127500D02*
X119932742Y-93127500D01*
X120407258Y-94172500D02*
X119932742Y-94172500D01*
G04 #@! TO.C,J4*
X152740000Y-73620000D02*
X153740000Y-73620000D01*
X179490000Y-91340000D02*
X173150000Y-91340000D01*
X179490000Y-74350000D02*
X173160000Y-74350000D01*
X152740000Y-73620000D02*
X153240000Y-74220000D01*
X146270000Y-74350000D02*
X170150000Y-74350000D01*
X146270000Y-91340000D02*
X146270000Y-74350000D01*
X153740000Y-73620000D02*
X153240000Y-74220000D01*
X179490000Y-91340000D02*
X179490000Y-74350000D01*
X170160000Y-91340000D02*
X146270000Y-91340000D01*
G04 #@! TO.C,R9*
X163630000Y-53783641D02*
X163630000Y-53476359D01*
X162870000Y-53783641D02*
X162870000Y-53476359D01*
G04 #@! TO.C,C77*
X140637836Y-72130000D02*
X140422164Y-72130000D01*
X140637836Y-72850000D02*
X140422164Y-72850000D01*
G04 #@! TO.C,R26*
X145780000Y-85721359D02*
X145780000Y-86028641D01*
X145020000Y-85721359D02*
X145020000Y-86028641D01*
G04 #@! TO.C,C53*
X142910000Y-53232836D02*
X142910000Y-53017164D01*
X142190000Y-53232836D02*
X142190000Y-53017164D01*
G04 #@! TO.C,C18*
X159867836Y-68310000D02*
X159652164Y-68310000D01*
X159867836Y-67590000D02*
X159652164Y-67590000D01*
G04 #@! TO.C,C28*
X151490000Y-68292164D02*
X151490000Y-68507836D01*
X152210000Y-68292164D02*
X152210000Y-68507836D01*
G04 #@! TO.C,C16*
X166577836Y-72110000D02*
X166362164Y-72110000D01*
X166577836Y-72830000D02*
X166362164Y-72830000D01*
G04 #@! TO.C,R25*
X144805000Y-89578641D02*
X144805000Y-89271359D01*
X144045000Y-89578641D02*
X144045000Y-89271359D01*
G04 #@! TO.C,R3*
X162006359Y-67550000D02*
X162313641Y-67550000D01*
X162006359Y-68310000D02*
X162313641Y-68310000D01*
G04 #@! TO.C,FB1*
X157687258Y-57122500D02*
X157212742Y-57122500D01*
X157687258Y-56077500D02*
X157212742Y-56077500D01*
G04 #@! TO.C,SW2*
X113790000Y-69450000D02*
X113490000Y-69450000D01*
X110290000Y-70600000D02*
X110670000Y-70100000D01*
X110990000Y-72750000D02*
X110990000Y-69450000D01*
X113790000Y-72750000D02*
X113790000Y-69450000D01*
X110290000Y-71600000D02*
X110670000Y-72100000D01*
X110670000Y-70100000D02*
X110990000Y-70100000D01*
X111290000Y-72750000D02*
X110990000Y-72750000D01*
X113490000Y-72750000D02*
X113790000Y-72750000D01*
X110670000Y-72100000D02*
X110990000Y-72100000D01*
X110990000Y-69450000D02*
X111290000Y-69450000D01*
X110290000Y-71600000D02*
X110290000Y-70600000D01*
G04 #@! TO.C,C34*
X155760000Y-55407836D02*
X155760000Y-55192164D01*
X155040000Y-55407836D02*
X155040000Y-55192164D01*
G04 #@! TO.C,R4*
X169463641Y-71150000D02*
X169156359Y-71150000D01*
X169463641Y-71910000D02*
X169156359Y-71910000D01*
G04 #@! TO.C,SW1*
X127860000Y-54460000D02*
X126160000Y-54460000D01*
X126360000Y-50370000D02*
X126560000Y-50170000D01*
X127660000Y-50370000D02*
X127460000Y-50170000D01*
X127660000Y-51670000D02*
X127660000Y-50370000D01*
X126360000Y-50370000D02*
X126360000Y-51670000D01*
X129360000Y-54460000D02*
X129160000Y-54460000D01*
X131360000Y-54460000D02*
X130660000Y-54460000D01*
X123360000Y-54460000D02*
X122660000Y-54460000D01*
X131360000Y-51670000D02*
X122660000Y-51670000D01*
X124860000Y-54460000D02*
X124660000Y-54460000D01*
X131960000Y-53460000D02*
X131960000Y-52670000D01*
X122060000Y-52670000D02*
X122060000Y-53460000D01*
X126560000Y-50170000D02*
X127460000Y-50170000D01*
G04 #@! TO.C,R13*
X157003641Y-59120000D02*
X156696359Y-59120000D01*
X157003641Y-59880000D02*
X156696359Y-59880000D01*
G04 #@! TO.C,C58*
X126482164Y-65390000D02*
X126697836Y-65390000D01*
X126482164Y-66110000D02*
X126697836Y-66110000D01*
G04 #@! TO.C,R6*
X159490000Y-60006359D02*
X159490000Y-60313641D01*
X160250000Y-60006359D02*
X160250000Y-60313641D01*
G04 #@! TO.C,R14*
X143446359Y-57120000D02*
X143753641Y-57120000D01*
X143446359Y-57880000D02*
X143753641Y-57880000D01*
G04 #@! TO.C,C83*
X153827836Y-72120000D02*
X153612164Y-72120000D01*
X153827836Y-72840000D02*
X153612164Y-72840000D01*
G04 #@! TD*
M02*
