G04 #@! TF.GenerationSoftware,KiCad,Pcbnew,5.99.0-unknown-r23941-4f651901*
G04 #@! TF.CreationDate,2020-11-30T00:39:53+01:00*
G04 #@! TF.ProjectId,whisperbounce,77686973-7065-4726-926f-756e63652e6b,rev?*
G04 #@! TF.SameCoordinates,Original*
G04 #@! TF.FileFunction,Paste,Top*
G04 #@! TF.FilePolarity,Positive*
%FSLAX46Y46*%
G04 Gerber Fmt 4.6, Leading zero omitted, Abs format (unit mm)*
G04 Created by KiCad (PCBNEW 5.99.0-unknown-r23941-4f651901) date 2020-11-30 00:39:53*
%MOMM*%
%LPD*%
G01*
G04 APERTURE LIST*
G04 Aperture macros list*
%AMRoundRect*
0 Rectangle with rounded corners*
0 $1 Rounding radius*
0 $2 $3 $4 $5 $6 $7 $8 $9 X,Y pos of 4 corners*
0 Add a 4 corners polygon primitive as box body*
4,1,4,$2,$3,$4,$5,$6,$7,$8,$9,$2,$3,0*
0 Add four circle primitives for the rounded corners*
1,1,$1+$1,$2,$3,0*
1,1,$1+$1,$4,$5,0*
1,1,$1+$1,$6,$7,0*
1,1,$1+$1,$8,$9,0*
0 Add four rect primitives between the rounded corners*
20,1,$1+$1,$2,$3,$4,$5,0*
20,1,$1+$1,$4,$5,$6,$7,0*
20,1,$1+$1,$6,$7,$8,$9,0*
20,1,$1+$1,$8,$9,$2,$3,0*%
G04 Aperture macros list end*
%ADD10RoundRect,0.140000X0.140000X0.170000X-0.140000X0.170000X-0.140000X-0.170000X0.140000X-0.170000X0*%
%ADD11R,0.750000X0.750000*%
%ADD12R,0.700000X0.400000*%
%ADD13RoundRect,0.140000X-0.140000X-0.170000X0.140000X-0.170000X0.140000X0.170000X-0.140000X0.170000X0*%
%ADD14RoundRect,0.135000X-0.185000X0.135000X-0.185000X-0.135000X0.185000X-0.135000X0.185000X0.135000X0*%
%ADD15RoundRect,0.200000X-0.200000X-0.275000X0.200000X-0.275000X0.200000X0.275000X-0.200000X0.275000X0*%
%ADD16RoundRect,0.200000X-0.275000X0.200000X-0.275000X-0.200000X0.275000X-0.200000X0.275000X0.200000X0*%
%ADD17RoundRect,0.140000X-0.170000X0.140000X-0.170000X-0.140000X0.170000X-0.140000X0.170000X0.140000X0*%
%ADD18RoundRect,0.135000X0.135000X0.185000X-0.135000X0.185000X-0.135000X-0.185000X0.135000X-0.185000X0*%
%ADD19RoundRect,0.135000X0.185000X-0.135000X0.185000X0.135000X-0.185000X0.135000X-0.185000X-0.135000X0*%
%ADD20RoundRect,0.140000X0.170000X-0.140000X0.170000X0.140000X-0.170000X0.140000X-0.170000X-0.140000X0*%
%ADD21RoundRect,0.147500X0.147500X0.172500X-0.147500X0.172500X-0.147500X-0.172500X0.147500X-0.172500X0*%
%ADD22RoundRect,0.135000X-0.135000X-0.185000X0.135000X-0.185000X0.135000X0.185000X-0.135000X0.185000X0*%
%ADD23R,0.600000X0.500000*%
%ADD24R,0.500000X0.450000*%
%ADD25R,0.500000X0.300000*%
%ADD26RoundRect,0.250000X-0.315000X-0.315000X0.315000X-0.315000X0.315000X0.315000X-0.315000X0.315000X0*%
%ADD27RoundRect,0.062500X-0.375000X-0.062500X0.375000X-0.062500X0.375000X0.062500X-0.375000X0.062500X0*%
%ADD28RoundRect,0.062500X-0.062500X-0.375000X0.062500X-0.375000X0.062500X0.375000X-0.062500X0.375000X0*%
%ADD29R,0.500000X0.600000*%
%ADD30R,0.650000X2.000000*%
%AMFp31*
4,1,18,0.050000,0.250000,0.069134,0.246194,0.085355,0.235354,0.096194,0.219133,0.100000,0.199999,0.099999,-0.200000,0.096193,-0.219134,0.085354,-0.235355,0.069133,-0.246194,0.049999,-0.250000,-0.050000,-0.250000,-0.069134,-0.246194,-0.085355,-0.235354,-0.096194,-0.219133,-0.100000,-0.199999,-0.099999,0.160000,-0.009999,0.250000,0.050000,0.250000,0.050000,0.250000,$1*%
%ADD31Fp31,270.000000*%
%ADD32RoundRect,0.050000X-0.200000X0.050000X-0.200000X-0.050000X0.200000X-0.050000X0.200000X0.050000X0*%
%AMFp33*
4,1,18,0.096193,-0.219134,0.085354,-0.235355,0.069133,-0.246194,0.049999,-0.250000,-0.050000,-0.250000,-0.069134,-0.246194,-0.085355,-0.235354,-0.096194,-0.219133,-0.100000,-0.199999,-0.099999,0.200000,-0.096193,0.219134,-0.085354,0.235355,-0.069133,0.246194,-0.049999,0.250000,0.010000,0.250000,0.100000,0.159999,0.099999,-0.200000,0.096193,-0.219134,0.096193,-0.219134,$1*%
%ADD33Fp33,270.000000*%
%AMFp34*
4,1,18,0.050000,0.250000,0.069134,0.246194,0.085355,0.235355,0.096194,0.219134,0.100000,0.200000,0.100000,-0.200000,0.096194,-0.219134,0.085355,-0.235355,0.069134,-0.246194,0.050000,-0.250000,-0.050000,-0.250000,-0.069134,-0.246194,-0.085355,-0.235355,-0.096194,-0.219134,-0.100000,-0.200000,-0.100000,0.160000,-0.010000,0.250000,0.050000,0.250000,0.050000,0.250000,$1*%
%ADD34Fp34,0.000000*%
%ADD35RoundRect,0.050000X-0.050000X-0.200000X0.050000X-0.200000X0.050000X0.200000X-0.050000X0.200000X0*%
%AMFp36*
4,1,18,0.096194,-0.219134,0.085355,-0.235355,0.069134,-0.246194,0.050000,-0.250000,-0.050000,-0.250000,-0.069134,-0.246194,-0.085355,-0.235355,-0.096194,-0.219134,-0.100000,-0.200000,-0.100000,0.200000,-0.096194,0.219134,-0.085355,0.235355,-0.069134,0.246194,-0.050000,0.250000,0.010000,0.250000,0.100000,0.160000,0.100000,-0.200000,0.096194,-0.219134,0.096194,-0.219134,$1*%
%ADD36Fp36,0.000000*%
%AMFp37*
4,1,18,0.050000,0.250000,0.069134,0.246194,0.085355,0.235355,0.096194,0.219134,0.100000,0.200000,0.099999,-0.200000,0.096193,-0.219134,0.085354,-0.235355,0.069133,-0.246194,0.049999,-0.250000,-0.050000,-0.250000,-0.069134,-0.246194,-0.085355,-0.235355,-0.096194,-0.219134,-0.100000,-0.200000,-0.099999,0.160000,-0.009999,0.250000,0.050000,0.250000,0.050000,0.250000,$1*%
%ADD37Fp37,90.000000*%
%ADD38RoundRect,0.050000X0.200000X-0.050000X0.200000X0.050000X-0.200000X0.050000X-0.200000X-0.050000X0*%
%AMFp39*
4,1,18,0.096193,-0.219134,0.085354,-0.235355,0.069133,-0.246194,0.049999,-0.250000,-0.050000,-0.250000,-0.069134,-0.246194,-0.085355,-0.235355,-0.096194,-0.219134,-0.100000,-0.200000,-0.099999,0.200000,-0.096193,0.219134,-0.085354,0.235355,-0.069133,0.246194,-0.049999,0.250000,0.010000,0.250000,0.100000,0.160000,0.099999,-0.200000,0.096193,-0.219134,0.096193,-0.219134,$1*%
%ADD39Fp39,90.000000*%
%AMFp40*
4,1,18,0.050000,0.250000,0.069134,0.246194,0.085355,0.235355,0.096194,0.219134,0.100000,0.200000,0.099999,-0.200000,0.096193,-0.219134,0.085354,-0.235355,0.069133,-0.246194,0.049999,-0.250000,-0.050000,-0.250000,-0.069134,-0.246194,-0.085355,-0.235355,-0.096194,-0.219134,-0.100000,-0.200000,-0.099999,0.160000,-0.009999,0.250000,0.050000,0.250000,0.050000,0.250000,$1*%
%ADD40Fp40,180.000000*%
%ADD41RoundRect,0.050000X0.050000X0.200000X-0.050000X0.200000X-0.050000X-0.200000X0.050000X-0.200000X0*%
%AMFp42*
4,1,18,0.096193,-0.219134,0.085354,-0.235355,0.069133,-0.246194,0.049999,-0.250000,-0.050000,-0.250000,-0.069134,-0.246194,-0.085355,-0.235355,-0.096194,-0.219134,-0.100000,-0.200000,-0.099999,0.200000,-0.096193,0.219134,-0.085354,0.235355,-0.069133,0.246194,-0.049999,0.250000,0.010000,0.250000,0.100000,0.160000,0.099999,-0.200000,0.096193,-0.219134,0.096193,-0.219134,$1*%
%ADD42Fp42,180.000000*%
%ADD43RoundRect,0.076800X0.307200X0.947200X-0.307200X0.947200X-0.307200X-0.947200X0.307200X-0.947200X0*%
%ADD44RoundRect,0.140000X-0.021213X0.219203X-0.219203X0.021213X0.021213X-0.219203X0.219203X-0.021213X0*%
%ADD45RoundRect,0.250000X0.253488X-0.253488X0.253488X0.253488X-0.253488X0.253488X-0.253488X-0.253488X0*%
%ADD46RoundRect,0.050000X0.050000X-0.350000X0.050000X0.350000X-0.050000X0.350000X-0.050000X-0.350000X0*%
%ADD47RoundRect,0.050000X0.350000X-0.050000X0.350000X0.050000X-0.350000X0.050000X-0.350000X-0.050000X0*%
%ADD48R,0.500000X0.400000*%
%ADD49RoundRect,0.250001X-0.354668X-0.354668X0.354668X-0.354668X0.354668X0.354668X-0.354668X0.354668X0*%
%ADD50RoundRect,0.250000X-0.275000X-0.275000X0.275000X-0.275000X0.275000X0.275000X-0.275000X0.275000X0*%
%ADD51RoundRect,0.062500X-0.350000X-0.062500X0.350000X-0.062500X0.350000X0.062500X-0.350000X0.062500X0*%
%ADD52RoundRect,0.062500X-0.062500X-0.350000X0.062500X-0.350000X0.062500X0.350000X-0.062500X0.350000X0*%
%ADD53RoundRect,0.250000X0.250000X0.475000X-0.250000X0.475000X-0.250000X-0.475000X0.250000X-0.475000X0*%
%ADD54RoundRect,0.200000X0.200000X0.275000X-0.200000X0.275000X-0.200000X-0.275000X0.200000X-0.275000X0*%
%ADD55RoundRect,0.150000X-0.512500X-0.150000X0.512500X-0.150000X0.512500X0.150000X-0.512500X0.150000X0*%
%ADD56RoundRect,0.075000X0.275000X-0.075000X0.275000X0.075000X-0.275000X0.075000X-0.275000X-0.075000X0*%
%ADD57RoundRect,0.175000X0.175000X-0.325000X0.175000X0.325000X-0.175000X0.325000X-0.175000X-0.325000X0*%
%ADD58R,1.700000X0.900000*%
%ADD59R,1.000000X0.800000*%
%ADD60R,0.700000X1.500000*%
G04 APERTURE END LIST*
D10*
G04 #@! TO.C,C13*
X156260000Y-62685000D03*
X155300000Y-62685000D03*
G04 #@! TD*
D11*
G04 #@! TO.C,U8*
X138425000Y-53925000D03*
X139475000Y-52875000D03*
G36*
X138800000Y-53250000D02*
G01*
X138050000Y-53250000D01*
X138050000Y-52750000D01*
X138300000Y-52500000D01*
X138800000Y-52500000D01*
X138800000Y-53250000D01*
G37*
X139475000Y-53925000D03*
D12*
X137350000Y-52200000D03*
X137350000Y-53000000D03*
X137350000Y-53800000D03*
X137350000Y-54600000D03*
X140550000Y-54600000D03*
X140550000Y-53800000D03*
X140550000Y-53000000D03*
X140550000Y-52200000D03*
G04 #@! TD*
D13*
G04 #@! TO.C,C21*
X159560000Y-62840000D03*
X160520000Y-62840000D03*
G04 #@! TD*
D10*
G04 #@! TO.C,C47*
X114121578Y-68176251D03*
X113161578Y-68176251D03*
G04 #@! TD*
G04 #@! TO.C,C84*
X151670000Y-72490000D03*
X150710000Y-72490000D03*
G04 #@! TD*
D14*
G04 #@! TO.C,R17*
X130000000Y-56290000D03*
X130000000Y-57310000D03*
G04 #@! TD*
D10*
G04 #@! TO.C,C12*
X158339999Y-62970000D03*
X157379999Y-62970000D03*
G04 #@! TD*
D15*
G04 #@! TO.C,FB4*
X150075000Y-70050000D03*
X151725000Y-70050000D03*
G04 #@! TD*
D16*
G04 #@! TO.C,FB6*
X137720000Y-56125000D03*
X137720000Y-57775000D03*
G04 #@! TD*
D13*
G04 #@! TO.C,C23*
X156320000Y-60800000D03*
X157280000Y-60800000D03*
G04 #@! TD*
D14*
G04 #@! TO.C,R18*
X128500000Y-56290000D03*
X128500000Y-57310000D03*
G04 #@! TD*
D17*
G04 #@! TO.C,C67*
X134320000Y-60780000D03*
X134320000Y-61740000D03*
G04 #@! TD*
D18*
G04 #@! TO.C,R32*
X127090000Y-68520000D03*
X126070000Y-68520000D03*
G04 #@! TD*
D17*
G04 #@! TO.C,C62*
X133400000Y-60780000D03*
X133400000Y-61740000D03*
G04 #@! TD*
D13*
G04 #@! TO.C,C68*
X126110000Y-67590000D03*
X127070000Y-67590000D03*
G04 #@! TD*
G04 #@! TO.C,C76*
X139745000Y-56925000D03*
X140705000Y-56925000D03*
G04 #@! TD*
D19*
G04 #@! TO.C,R22*
X136275000Y-53010000D03*
X136275000Y-51990000D03*
G04 #@! TD*
D20*
G04 #@! TO.C,C42*
X145500000Y-56430000D03*
X145500000Y-55470000D03*
G04 #@! TD*
D21*
G04 #@! TO.C,D1*
X179055000Y-69930000D03*
X178085000Y-69930000D03*
G04 #@! TD*
D19*
G04 #@! TO.C,R29*
X141725000Y-68735000D03*
X141725000Y-67715000D03*
G04 #@! TD*
D13*
G04 #@! TO.C,C40*
X143120000Y-58400000D03*
X144080000Y-58400000D03*
G04 #@! TD*
D10*
G04 #@! TO.C,C8*
X166990000Y-63680000D03*
X166030000Y-63680000D03*
G04 #@! TD*
D20*
G04 #@! TO.C,C35*
X152450000Y-56430000D03*
X152450000Y-55470000D03*
G04 #@! TD*
D22*
G04 #@! TO.C,R20*
X113090000Y-61200000D03*
X114110000Y-61200000D03*
G04 #@! TD*
D23*
G04 #@! TO.C,X1*
X140725000Y-57950000D03*
X139625000Y-57950000D03*
X139625000Y-58750000D03*
X140725000Y-58750000D03*
G04 #@! TD*
D17*
G04 #@! TO.C,C74*
X134400000Y-53865000D03*
X134400000Y-54825000D03*
G04 #@! TD*
D10*
G04 #@! TO.C,C52*
X121380000Y-70200000D03*
X120420000Y-70200000D03*
G04 #@! TD*
D14*
G04 #@! TO.C,R35*
X145400000Y-87940000D03*
X145400000Y-88960000D03*
G04 #@! TD*
D13*
G04 #@! TO.C,C37*
X157200000Y-57790000D03*
X158160000Y-57790000D03*
G04 #@! TD*
D14*
G04 #@! TO.C,R8*
X168830000Y-67640000D03*
X168830000Y-68660000D03*
G04 #@! TD*
D10*
G04 #@! TO.C,C14*
X158340000Y-63890000D03*
X157380000Y-63890000D03*
G04 #@! TD*
D17*
G04 #@! TO.C,C33*
X150900000Y-67920000D03*
X150900000Y-68880000D03*
G04 #@! TD*
D20*
G04 #@! TO.C,C2*
X169620000Y-54700000D03*
X169620000Y-53740000D03*
G04 #@! TD*
D24*
G04 #@! TO.C,U3*
X169400000Y-65945000D03*
D25*
X169400000Y-65370000D03*
X169400000Y-64870000D03*
X169400000Y-64370000D03*
X169400000Y-63870000D03*
X169400000Y-63370000D03*
X169400000Y-62870000D03*
X169400000Y-62370000D03*
X169400000Y-61870000D03*
X169400000Y-61370000D03*
X169400000Y-60870000D03*
X168100000Y-61120000D03*
X168100000Y-61870000D03*
X168100000Y-62620000D03*
X168100000Y-63370000D03*
X168100000Y-64120000D03*
X168100000Y-64870000D03*
X168100000Y-65620000D03*
G36*
X168650001Y-64620000D02*
G01*
X169000000Y-64620001D01*
X168999999Y-65120000D01*
X168650000Y-65120000D01*
X168500000Y-64969999D01*
X168500000Y-64770000D01*
X168650001Y-64620000D01*
G37*
G36*
X168650001Y-63120000D02*
G01*
X169000000Y-63120001D01*
X168999999Y-63620000D01*
X168650000Y-63620000D01*
X168500000Y-63469999D01*
X168500000Y-63270000D01*
X168650001Y-63120000D01*
G37*
G36*
X168650001Y-61620000D02*
G01*
X169000000Y-61620001D01*
X168999999Y-62120000D01*
X168650000Y-62120000D01*
X168500000Y-61969999D01*
X168500000Y-61770000D01*
X168650001Y-61620000D01*
G37*
G04 #@! TD*
D26*
G04 #@! TO.C,U7*
X116620000Y-64550000D03*
X119420000Y-63150000D03*
X116620000Y-67350000D03*
X120820000Y-67350000D03*
X119420000Y-64550000D03*
X120820000Y-65950000D03*
X120820000Y-63150000D03*
X119420000Y-65950000D03*
X118020000Y-64550000D03*
X118020000Y-67350000D03*
X118020000Y-65950000D03*
X119420000Y-67350000D03*
X118020000Y-63150000D03*
X120820000Y-64550000D03*
X116620000Y-63150000D03*
X116620000Y-65950000D03*
D27*
X115282500Y-62500000D03*
X115282500Y-63000000D03*
X115282500Y-63500000D03*
X115282500Y-64000000D03*
X115282500Y-64500000D03*
X115282500Y-65000000D03*
X115282500Y-65500000D03*
X115282500Y-66000000D03*
X115282500Y-66500000D03*
X115282500Y-67000000D03*
X115282500Y-67500000D03*
X115282500Y-68000000D03*
D28*
X115970000Y-68687500D03*
X116470000Y-68687500D03*
X116970000Y-68687500D03*
X117470000Y-68687500D03*
X117970000Y-68687500D03*
X118470000Y-68687500D03*
X118970000Y-68687500D03*
X119470000Y-68687500D03*
X119970000Y-68687500D03*
X120470000Y-68687500D03*
X120970000Y-68687500D03*
X121470000Y-68687500D03*
D27*
X122157500Y-68000000D03*
X122157500Y-67500000D03*
X122157500Y-67000000D03*
X122157500Y-66500000D03*
X122157500Y-66000000D03*
X122157500Y-65500000D03*
X122157500Y-65000000D03*
X122157500Y-64500000D03*
X122157500Y-64000000D03*
X122157500Y-63500000D03*
X122157500Y-63000000D03*
X122157500Y-62500000D03*
D28*
X121470000Y-61812500D03*
X120970000Y-61812500D03*
X120470000Y-61812500D03*
X119970000Y-61812500D03*
X119470000Y-61812500D03*
X118970000Y-61812500D03*
X118470000Y-61812500D03*
X117970000Y-61812500D03*
X117470000Y-61812500D03*
X116970000Y-61812500D03*
X116470000Y-61812500D03*
X115970000Y-61812500D03*
G04 #@! TD*
D13*
G04 #@! TO.C,C81*
X149770000Y-93200000D03*
X150730000Y-93200000D03*
G04 #@! TD*
D22*
G04 #@! TO.C,R37*
X176160000Y-69940000D03*
X177180000Y-69940000D03*
G04 #@! TD*
D10*
G04 #@! TO.C,C78*
X139130000Y-72490000D03*
X138170000Y-72490000D03*
G04 #@! TD*
G04 #@! TO.C,C49*
X113150000Y-63175000D03*
X112190000Y-63175000D03*
G04 #@! TD*
D20*
G04 #@! TO.C,C41*
X146450000Y-56430000D03*
X146450000Y-55470000D03*
G04 #@! TD*
D10*
G04 #@! TO.C,C32*
X145130000Y-67850000D03*
X144170000Y-67850000D03*
G04 #@! TD*
D14*
G04 #@! TO.C,R10*
X155400000Y-56640000D03*
X155400000Y-57660000D03*
G04 #@! TD*
D13*
G04 #@! TO.C,C50*
X112190000Y-66350000D03*
X113150000Y-66350000D03*
G04 #@! TD*
D16*
G04 #@! TO.C,FB8*
X131350000Y-56615000D03*
X131350000Y-58265000D03*
G04 #@! TD*
D13*
G04 #@! TO.C,C1*
X161900000Y-58670000D03*
X162860000Y-58670000D03*
G04 #@! TD*
D29*
G04 #@! TO.C,Y2*
X113070000Y-65300000D03*
X113070000Y-64200000D03*
X112270000Y-64200000D03*
X112270000Y-65300000D03*
G04 #@! TD*
D10*
G04 #@! TO.C,C25*
X143980000Y-61500000D03*
X143020000Y-61500000D03*
G04 #@! TD*
D14*
G04 #@! TO.C,R15*
X154300000Y-67790000D03*
X154300000Y-68810000D03*
G04 #@! TD*
D20*
G04 #@! TO.C,C48*
X123550000Y-62130000D03*
X123550000Y-61170000D03*
G04 #@! TD*
D19*
G04 #@! TO.C,R34*
X144450000Y-87410000D03*
X144450000Y-86390000D03*
G04 #@! TD*
D13*
G04 #@! TO.C,C46*
X122320000Y-69900000D03*
X123280000Y-69900000D03*
G04 #@! TD*
G04 #@! TO.C,C60*
X126380000Y-64120000D03*
X127340000Y-64120000D03*
G04 #@! TD*
D20*
G04 #@! TO.C,C36*
X144550000Y-56430000D03*
X144550000Y-55470000D03*
G04 #@! TD*
D10*
G04 #@! TO.C,C5*
X166990000Y-64600000D03*
X166030000Y-64600000D03*
G04 #@! TD*
D19*
G04 #@! TO.C,R31*
X139825000Y-68735000D03*
X139825000Y-67715000D03*
G04 #@! TD*
D10*
G04 #@! TO.C,C63*
X139050000Y-69880000D03*
X138090000Y-69880000D03*
G04 #@! TD*
D30*
G04 #@! TO.C,L1*
X147425000Y-68800000D03*
X148775000Y-68800000D03*
G04 #@! TD*
D10*
G04 #@! TO.C,C29*
X143930000Y-63500000D03*
X142970000Y-63500000D03*
G04 #@! TD*
D18*
G04 #@! TO.C,R7*
X162540000Y-65050000D03*
X161520000Y-65050000D03*
G04 #@! TD*
D17*
G04 #@! TO.C,C75*
X129460000Y-60715000D03*
X129460000Y-61675000D03*
G04 #@! TD*
D14*
G04 #@! TO.C,R11*
X154400000Y-54815000D03*
X154400000Y-55835000D03*
G04 #@! TD*
D13*
G04 #@! TO.C,C45*
X115020000Y-60650000D03*
X115980000Y-60650000D03*
G04 #@! TD*
D31*
G04 #@! TO.C,U2*
X161500000Y-60030000D03*
D32*
X161500000Y-60430000D03*
X161500000Y-60830000D03*
X161500000Y-61230000D03*
X161500000Y-61630000D03*
X161500000Y-62030000D03*
X161500000Y-62430000D03*
X161500000Y-62830000D03*
X161500000Y-63230000D03*
D33*
X161500000Y-63630000D03*
D34*
X161900000Y-64030000D03*
D35*
X162300000Y-64030000D03*
X162700000Y-64030000D03*
X163100000Y-64030000D03*
D36*
X163500000Y-64030000D03*
D37*
X163900000Y-63630000D03*
D38*
X163900000Y-63230000D03*
X163900000Y-62830000D03*
X163900000Y-62430000D03*
X163900000Y-62030000D03*
X163900000Y-61630000D03*
X163900000Y-61230000D03*
X163900000Y-60830000D03*
X163900000Y-60430000D03*
D39*
X163900000Y-60030000D03*
D40*
X163500000Y-59630000D03*
D41*
X163100000Y-59630000D03*
X162700000Y-59630000D03*
X162300000Y-59630000D03*
D42*
X161900000Y-59630000D03*
D43*
X162700000Y-61830000D03*
G04 #@! TD*
D10*
G04 #@! TO.C,C71*
X138850000Y-68960000D03*
X137890000Y-68960000D03*
G04 #@! TD*
G04 #@! TO.C,C44*
X114180000Y-62200000D03*
X113220000Y-62200000D03*
G04 #@! TD*
D44*
G04 #@! TO.C,C64*
X138514411Y-65560589D03*
X137835589Y-66239411D03*
G04 #@! TD*
D10*
G04 #@! TO.C,C82*
X154190000Y-93200000D03*
X153230000Y-93200000D03*
G04 #@! TD*
D45*
G04 #@! TO.C,U9*
X131450000Y-64600000D03*
X130250000Y-68200000D03*
X133850000Y-69400000D03*
X131450000Y-67000000D03*
X130250000Y-67000000D03*
X132650000Y-64600000D03*
X133850000Y-65800000D03*
X133850000Y-64600000D03*
X132650000Y-68200000D03*
X132650000Y-69400000D03*
X135050000Y-68200000D03*
X130250000Y-64600000D03*
X133850000Y-67000000D03*
X135050000Y-65800000D03*
X131450000Y-65800000D03*
X132650000Y-65800000D03*
X131450000Y-69400000D03*
X135050000Y-69400000D03*
X133850000Y-68200000D03*
X131450000Y-68200000D03*
X135050000Y-64600000D03*
X135050000Y-67000000D03*
X130250000Y-69400000D03*
X132650000Y-67000000D03*
X130250000Y-65800000D03*
D46*
X129650000Y-70950000D03*
X130050000Y-70950000D03*
X130450000Y-70950000D03*
X130850000Y-70950000D03*
X131250000Y-70950000D03*
X131650000Y-70950000D03*
X132050000Y-70950000D03*
X132450000Y-70950000D03*
X132850000Y-70950000D03*
X133250000Y-70950000D03*
X133650000Y-70950000D03*
X134050000Y-70950000D03*
X134450000Y-70950000D03*
X134850000Y-70950000D03*
X135250000Y-70950000D03*
X135650000Y-70950000D03*
D47*
X136600000Y-70000000D03*
X136600000Y-69600000D03*
X136600000Y-69200000D03*
X136600000Y-68800000D03*
X136600000Y-68400000D03*
X136600000Y-68000000D03*
X136600000Y-67600000D03*
X136600000Y-67200000D03*
X136600000Y-66800000D03*
X136600000Y-66400000D03*
X136600000Y-66000000D03*
X136600000Y-65600000D03*
X136600000Y-65200000D03*
X136600000Y-64800000D03*
X136600000Y-64400000D03*
X136600000Y-64000000D03*
D46*
X135650000Y-63050000D03*
X135250000Y-63050000D03*
X134850000Y-63050000D03*
X134450000Y-63050000D03*
X134050000Y-63050000D03*
X133650000Y-63050000D03*
X133250000Y-63050000D03*
X132850000Y-63050000D03*
X132450000Y-63050000D03*
X132050000Y-63050000D03*
X131650000Y-63050000D03*
X131250000Y-63050000D03*
X130850000Y-63050000D03*
X130450000Y-63050000D03*
X130050000Y-63050000D03*
X129650000Y-63050000D03*
D47*
X128700000Y-64000000D03*
X128700000Y-64400000D03*
X128700000Y-64800000D03*
X128700000Y-65200000D03*
X128700000Y-65600000D03*
X128700000Y-66000000D03*
X128700000Y-66400000D03*
X128700000Y-66800000D03*
X128700000Y-67200000D03*
X128700000Y-67600000D03*
X128700000Y-68000000D03*
X128700000Y-68400000D03*
X128700000Y-68800000D03*
X128700000Y-69200000D03*
X128700000Y-69600000D03*
X128700000Y-70000000D03*
G04 #@! TD*
D48*
G04 #@! TO.C,RN4*
X140580000Y-60250000D03*
D25*
X140580000Y-60750000D03*
X140580000Y-61250000D03*
D48*
X140580000Y-61750000D03*
X141580000Y-61750000D03*
D25*
X141580000Y-61250000D03*
X141580000Y-60750000D03*
D48*
X141580000Y-60250000D03*
G04 #@! TD*
D18*
G04 #@! TO.C,R19*
X123960000Y-56350000D03*
X122940000Y-56350000D03*
G04 #@! TD*
D48*
G04 #@! TO.C,RN2*
X140580000Y-65280000D03*
D25*
X140580000Y-65780000D03*
X140580000Y-66280000D03*
D48*
X140580000Y-66780000D03*
X141580000Y-66780000D03*
D25*
X141580000Y-66280000D03*
X141580000Y-65780000D03*
D48*
X141580000Y-65280000D03*
G04 #@! TD*
G04 #@! TO.C,RN3*
X140580000Y-62760000D03*
D25*
X140580000Y-63260000D03*
X140580000Y-63760000D03*
D48*
X140580000Y-64260000D03*
X141580000Y-64260000D03*
D25*
X141580000Y-63760000D03*
X141580000Y-63260000D03*
D48*
X141580000Y-62760000D03*
G04 #@! TD*
D10*
G04 #@! TO.C,C6*
X166990000Y-61600000D03*
X166030000Y-61600000D03*
G04 #@! TD*
G04 #@! TO.C,C9*
X166990000Y-60680000D03*
X166030000Y-60680000D03*
G04 #@! TD*
D23*
G04 #@! TO.C,Y1*
X161140000Y-66870000D03*
X162240000Y-66870000D03*
X162240000Y-66070000D03*
X161140000Y-66070000D03*
G04 #@! TD*
D14*
G04 #@! TO.C,R1*
X171650000Y-70540000D03*
X171650000Y-71560000D03*
G04 #@! TD*
D17*
G04 #@! TO.C,C15*
X160120000Y-65990000D03*
X160120000Y-66950000D03*
G04 #@! TD*
D20*
G04 #@! TO.C,C57*
X133910000Y-73590000D03*
X133910000Y-72630000D03*
G04 #@! TD*
D10*
G04 #@! TO.C,C69*
X137230000Y-72070000D03*
X136270000Y-72070000D03*
G04 #@! TD*
D18*
G04 #@! TO.C,R16*
X145160000Y-68800000D03*
X144140000Y-68800000D03*
G04 #@! TD*
D20*
G04 #@! TO.C,C54*
X132440000Y-73540000D03*
X132440000Y-72580000D03*
G04 #@! TD*
D15*
G04 #@! TO.C,FB10*
X168275000Y-93660000D03*
X169925000Y-93660000D03*
G04 #@! TD*
D17*
G04 #@! TO.C,C30*
X155400000Y-64870000D03*
X155400000Y-65830000D03*
G04 #@! TD*
D20*
G04 #@! TO.C,C61*
X127550000Y-72040000D03*
X127550000Y-71080000D03*
G04 #@! TD*
D49*
G04 #@! TO.C,U6*
X148972500Y-60167500D03*
X148972500Y-61542500D03*
X148972500Y-62917500D03*
X147597500Y-61542500D03*
X147597500Y-64292500D03*
X148972500Y-64292500D03*
X151722500Y-64292500D03*
X150347500Y-61542500D03*
X151722500Y-62917500D03*
X147597500Y-60167500D03*
X150347500Y-62917500D03*
X150347500Y-64292500D03*
X147597500Y-62917500D03*
X151722500Y-60167500D03*
X150347500Y-60167500D03*
X151722500Y-61542500D03*
D27*
X145222500Y-58480000D03*
X145222500Y-58980000D03*
X145222500Y-59480000D03*
X145222500Y-59980000D03*
X145222500Y-60480000D03*
X145222500Y-60980000D03*
X145222500Y-61480000D03*
X145222500Y-61980000D03*
X145222500Y-62480000D03*
X145222500Y-62980000D03*
X145222500Y-63480000D03*
X145222500Y-63980000D03*
X145222500Y-64480000D03*
X145222500Y-64980000D03*
X145222500Y-65480000D03*
X145222500Y-65980000D03*
D28*
X145910000Y-66667500D03*
X146410000Y-66667500D03*
X146910000Y-66667500D03*
X147410000Y-66667500D03*
X147910000Y-66667500D03*
X148410000Y-66667500D03*
X148910000Y-66667500D03*
X149410000Y-66667500D03*
X149910000Y-66667500D03*
X150410000Y-66667500D03*
X150910000Y-66667500D03*
X151410000Y-66667500D03*
X151910000Y-66667500D03*
X152410000Y-66667500D03*
X152910000Y-66667500D03*
X153410000Y-66667500D03*
D27*
X154097500Y-65980000D03*
X154097500Y-65480000D03*
X154097500Y-64980000D03*
X154097500Y-64480000D03*
X154097500Y-63980000D03*
X154097500Y-63480000D03*
X154097500Y-62980000D03*
X154097500Y-62480000D03*
X154097500Y-61980000D03*
X154097500Y-61480000D03*
X154097500Y-60980000D03*
X154097500Y-60480000D03*
X154097500Y-59980000D03*
X154097500Y-59480000D03*
X154097500Y-58980000D03*
X154097500Y-58480000D03*
D28*
X153410000Y-57792500D03*
X152910000Y-57792500D03*
X152410000Y-57792500D03*
X151910000Y-57792500D03*
X151410000Y-57792500D03*
X150910000Y-57792500D03*
X150410000Y-57792500D03*
X149910000Y-57792500D03*
X149410000Y-57792500D03*
X148910000Y-57792500D03*
X148410000Y-57792500D03*
X147910000Y-57792500D03*
X147410000Y-57792500D03*
X146910000Y-57792500D03*
X146410000Y-57792500D03*
X145910000Y-57792500D03*
G04 #@! TD*
D17*
G04 #@! TO.C,C19*
X163250000Y-55000000D03*
X163250000Y-55960000D03*
G04 #@! TD*
D50*
G04 #@! TO.C,U4*
X165090000Y-68770000D03*
X166390000Y-70070000D03*
X165090000Y-70070000D03*
X166390000Y-68770000D03*
D51*
X163802500Y-68170000D03*
X163802500Y-68670000D03*
X163802500Y-69170000D03*
X163802500Y-69670000D03*
X163802500Y-70170000D03*
X163802500Y-70670000D03*
D52*
X164490000Y-71357500D03*
X164990000Y-71357500D03*
X165490000Y-71357500D03*
X165990000Y-71357500D03*
X166490000Y-71357500D03*
X166990000Y-71357500D03*
D51*
X167677500Y-70670000D03*
X167677500Y-70170000D03*
X167677500Y-69670000D03*
X167677500Y-69170000D03*
X167677500Y-68670000D03*
X167677500Y-68170000D03*
D52*
X166990000Y-67482500D03*
X166490000Y-67482500D03*
X165990000Y-67482500D03*
X165490000Y-67482500D03*
X164990000Y-67482500D03*
X164490000Y-67482500D03*
G04 #@! TD*
D20*
G04 #@! TO.C,C55*
X141625000Y-53605000D03*
X141625000Y-52645000D03*
G04 #@! TD*
D10*
G04 #@! TO.C,C80*
X140090000Y-93170000D03*
X139130000Y-93170000D03*
G04 #@! TD*
D17*
G04 #@! TO.C,C65*
X132470000Y-60780000D03*
X132470000Y-61740000D03*
G04 #@! TD*
D10*
G04 #@! TO.C,C70*
X136720000Y-61940000D03*
X135760000Y-61940000D03*
G04 #@! TD*
D19*
G04 #@! TO.C,R28*
X142675000Y-68735000D03*
X142675000Y-67715000D03*
G04 #@! TD*
D14*
G04 #@! TO.C,R27*
X145400000Y-75740000D03*
X145400000Y-76760000D03*
G04 #@! TD*
D17*
G04 #@! TO.C,C73*
X135325000Y-53870000D03*
X135325000Y-54830000D03*
G04 #@! TD*
D14*
G04 #@! TO.C,R36*
X145400000Y-78290000D03*
X145400000Y-79310000D03*
G04 #@! TD*
D53*
G04 #@! TO.C,C43*
X148675000Y-71075000D03*
X146775000Y-71075000D03*
G04 #@! TD*
D54*
G04 #@! TO.C,FB2*
X172245000Y-56600000D03*
X170595000Y-56600000D03*
G04 #@! TD*
D19*
G04 #@! TO.C,R12*
X155310000Y-68330000D03*
X155310000Y-67310000D03*
G04 #@! TD*
D13*
G04 #@! TO.C,C79*
X135640000Y-93160000D03*
X136600000Y-93160000D03*
G04 #@! TD*
D10*
G04 #@! TO.C,C20*
X143730000Y-59350000D03*
X142770000Y-59350000D03*
G04 #@! TD*
D17*
G04 #@! TO.C,C7*
X161370000Y-55000000D03*
X161370000Y-55960000D03*
G04 #@! TD*
D10*
G04 #@! TO.C,C17*
X165070000Y-72480000D03*
X164110000Y-72480000D03*
G04 #@! TD*
D19*
G04 #@! TO.C,R2*
X170710000Y-71560000D03*
X170710000Y-70540000D03*
G04 #@! TD*
D55*
G04 #@! TO.C,U5*
X156462500Y-70150000D03*
X156462500Y-71100000D03*
X156462500Y-72050000D03*
X158737500Y-72050000D03*
X158737500Y-71100000D03*
X158737500Y-70150000D03*
G04 #@! TD*
D19*
G04 #@! TO.C,R30*
X140775000Y-68735000D03*
X140775000Y-67715000D03*
G04 #@! TD*
D14*
G04 #@! TO.C,R21*
X119450000Y-69790000D03*
X119450000Y-70810000D03*
G04 #@! TD*
D56*
G04 #@! TO.C,J1*
X172110000Y-66380000D03*
X172110000Y-65880000D03*
X172110000Y-65380000D03*
X172110000Y-64880000D03*
X172110000Y-64380000D03*
X172110000Y-63880000D03*
X172110000Y-62880000D03*
X172110000Y-62380000D03*
X172110000Y-61880000D03*
X172110000Y-61380000D03*
X172110000Y-60880000D03*
X172110000Y-60380000D03*
D57*
X173420000Y-60280000D03*
D56*
X173420000Y-61130000D03*
X173420000Y-61630000D03*
X173420000Y-62130000D03*
X173420000Y-62630000D03*
X173420000Y-63130000D03*
X173420000Y-63630000D03*
X173420000Y-64130000D03*
X173420000Y-64630000D03*
X173420000Y-65130000D03*
X173420000Y-65630000D03*
D57*
X173420000Y-66480000D03*
G04 #@! TD*
D18*
G04 #@! TO.C,R5*
X169820000Y-70590000D03*
X168800000Y-70590000D03*
G04 #@! TD*
D20*
G04 #@! TO.C,C22*
X153475000Y-54605000D03*
X153475000Y-53645000D03*
G04 #@! TD*
G04 #@! TO.C,C4*
X163250000Y-66940000D03*
X163250000Y-65980000D03*
G04 #@! TD*
D13*
G04 #@! TO.C,C59*
X126120000Y-69450000D03*
X127080000Y-69450000D03*
G04 #@! TD*
G04 #@! TO.C,C38*
X160170000Y-70175000D03*
X161130000Y-70175000D03*
G04 #@! TD*
D20*
G04 #@! TO.C,C26*
X152575000Y-54605000D03*
X152575000Y-53645000D03*
G04 #@! TD*
D17*
G04 #@! TO.C,C72*
X136275000Y-53870000D03*
X136275000Y-54830000D03*
G04 #@! TD*
D20*
G04 #@! TO.C,C3*
X168700000Y-54700000D03*
X168700000Y-53740000D03*
G04 #@! TD*
D16*
G04 #@! TO.C,FB7*
X136220000Y-56125000D03*
X136220000Y-57775000D03*
G04 #@! TD*
D10*
G04 #@! TO.C,C11*
X156260000Y-61775000D03*
X155300000Y-61775000D03*
G04 #@! TD*
D16*
G04 #@! TO.C,FB5*
X132810000Y-56615000D03*
X132810000Y-58265000D03*
G04 #@! TD*
D19*
G04 #@! TO.C,R23*
X130410000Y-61680000D03*
X130410000Y-60660000D03*
G04 #@! TD*
D20*
G04 #@! TO.C,C66*
X131030000Y-73560000D03*
X131030000Y-72600000D03*
G04 #@! TD*
G04 #@! TO.C,C27*
X147400000Y-56430000D03*
X147400000Y-55470000D03*
G04 #@! TD*
D13*
G04 #@! TO.C,C39*
X155370000Y-58550000D03*
X156330000Y-58550000D03*
G04 #@! TD*
D20*
G04 #@! TO.C,C24*
X150900000Y-56430000D03*
X150900000Y-55470000D03*
G04 #@! TD*
D17*
G04 #@! TO.C,C10*
X162310000Y-55000000D03*
X162310000Y-55960000D03*
G04 #@! TD*
G04 #@! TO.C,U1*
G36*
X165820000Y-54390000D02*
G01*
X165070000Y-54390000D01*
X165070000Y-53890000D01*
X165320000Y-53640000D01*
X165820000Y-53640000D01*
X165820000Y-54390000D01*
G37*
D11*
X165445000Y-55065000D03*
X166495000Y-55065000D03*
X166495000Y-54015000D03*
D12*
X164370000Y-53340000D03*
X164370000Y-54140000D03*
X164370000Y-54940000D03*
X164370000Y-55740000D03*
X167570000Y-55740000D03*
X167570000Y-54940000D03*
X167570000Y-54140000D03*
X167570000Y-53340000D03*
G04 #@! TD*
D19*
G04 #@! TO.C,R24*
X144450000Y-80285000D03*
X144450000Y-79265000D03*
G04 #@! TD*
D13*
G04 #@! TO.C,C51*
X112670000Y-67250000D03*
X113630000Y-67250000D03*
G04 #@! TD*
D54*
G04 #@! TO.C,FB3*
X158275000Y-55100000D03*
X156625000Y-55100000D03*
G04 #@! TD*
D19*
G04 #@! TO.C,R33*
X144450000Y-77760000D03*
X144450000Y-76740000D03*
G04 #@! TD*
D13*
G04 #@! TO.C,C56*
X126100000Y-66670000D03*
X127060000Y-66670000D03*
G04 #@! TD*
D54*
G04 #@! TO.C,FB9*
X120995000Y-93650000D03*
X119345000Y-93650000D03*
G04 #@! TD*
D19*
G04 #@! TO.C,R9*
X163250000Y-54140000D03*
X163250000Y-53120000D03*
G04 #@! TD*
D10*
G04 #@! TO.C,C77*
X141010000Y-72490000D03*
X140050000Y-72490000D03*
G04 #@! TD*
D14*
G04 #@! TO.C,R26*
X145400000Y-85365000D03*
X145400000Y-86385000D03*
G04 #@! TD*
D20*
G04 #@! TO.C,C53*
X142550000Y-53605000D03*
X142550000Y-52645000D03*
G04 #@! TD*
D10*
G04 #@! TO.C,C18*
X160240000Y-67950000D03*
X159280000Y-67950000D03*
G04 #@! TD*
D17*
G04 #@! TO.C,C28*
X151850000Y-67920000D03*
X151850000Y-68880000D03*
G04 #@! TD*
D10*
G04 #@! TO.C,C16*
X166950000Y-72470000D03*
X165990000Y-72470000D03*
G04 #@! TD*
D19*
G04 #@! TO.C,R25*
X144425000Y-89935000D03*
X144425000Y-88915000D03*
G04 #@! TD*
D22*
G04 #@! TO.C,R3*
X161650000Y-67930000D03*
X162670000Y-67930000D03*
G04 #@! TD*
D54*
G04 #@! TO.C,FB1*
X158275000Y-56600000D03*
X156625000Y-56600000D03*
G04 #@! TD*
D58*
G04 #@! TO.C,SW2*
X112390000Y-72800000D03*
X112390000Y-69400000D03*
G04 #@! TD*
D20*
G04 #@! TO.C,C34*
X155400000Y-55780000D03*
X155400000Y-54820000D03*
G04 #@! TD*
D18*
G04 #@! TO.C,R4*
X169820000Y-71530000D03*
X168800000Y-71530000D03*
G04 #@! TD*
D59*
G04 #@! TO.C,SW1*
X121860000Y-54170000D03*
X121860000Y-51960000D03*
X132160000Y-51960000D03*
X132160000Y-54170000D03*
D60*
X130010000Y-54820000D03*
X128510000Y-54820000D03*
X125510000Y-54820000D03*
X124010000Y-54820000D03*
G04 #@! TD*
D18*
G04 #@! TO.C,R13*
X157360000Y-59500000D03*
X156340000Y-59500000D03*
G04 #@! TD*
D13*
G04 #@! TO.C,C58*
X126110000Y-65750000D03*
X127070000Y-65750000D03*
G04 #@! TD*
D14*
G04 #@! TO.C,R6*
X159870000Y-59650000D03*
X159870000Y-60670000D03*
G04 #@! TD*
D22*
G04 #@! TO.C,R14*
X143090000Y-57500000D03*
X144110000Y-57500000D03*
G04 #@! TD*
D10*
G04 #@! TO.C,C83*
X154200000Y-72480000D03*
X153240000Y-72480000D03*
G04 #@! TD*
M02*
