G04 #@! TF.GenerationSoftware,KiCad,Pcbnew,5.99.0-unknown-r23941-4f651901*
G04 #@! TF.CreationDate,2020-11-30T00:39:54+01:00*
G04 #@! TF.ProjectId,whisperbounce,77686973-7065-4726-926f-756e63652e6b,rev?*
G04 #@! TF.SameCoordinates,Original*
G04 #@! TF.FileFunction,Soldermask,Bot*
G04 #@! TF.FilePolarity,Negative*
%FSLAX46Y46*%
G04 Gerber Fmt 4.6, Leading zero omitted, Abs format (unit mm)*
G04 Created by KiCad (PCBNEW 5.99.0-unknown-r23941-4f651901) date 2020-11-30 00:39:54*
%MOMM*%
%LPD*%
G01*
G04 APERTURE LIST*
%ADD10C,0.800000*%
%ADD11C,6.400000*%
%ADD12C,0.400000*%
%ADD13O,2.600000X1.100000*%
%ADD14O,2.100000X1.100000*%
%ADD15C,3.200000*%
%ADD16R,1.524000X1.524000*%
%ADD17C,1.524000*%
%ADD18C,1.800000*%
%ADD19C,2.630000*%
%ADD20C,2.610000*%
%ADD21C,0.900000*%
%ADD22C,1.500000*%
%ADD23R,1.300000X0.300000*%
%ADD24R,2.200000X1.800000*%
G04 APERTURE END LIST*
D10*
G04 #@! TO.C,H4*
X111350000Y-53750000D03*
X113750000Y-51350000D03*
X113750000Y-56150000D03*
X115447056Y-52052944D03*
X112052944Y-52052944D03*
X112052944Y-55447056D03*
X116150000Y-53750000D03*
X115447056Y-55447056D03*
D11*
X113750000Y-53750000D03*
G04 #@! TD*
D12*
G04 #@! TO.C,U2*
X162400000Y-60630000D03*
X163000000Y-63030000D03*
X163000000Y-61830000D03*
X163000000Y-60630000D03*
X162400000Y-61830000D03*
X162400000Y-63030000D03*
G04 #@! TD*
D10*
G04 #@! TO.C,H1*
X173850000Y-53750000D03*
X177947056Y-55447056D03*
X176250000Y-51350000D03*
X174552944Y-55447056D03*
X178650000Y-53750000D03*
X177947056Y-52052944D03*
D11*
X176250000Y-53750000D03*
D10*
X174552944Y-52052944D03*
X176250000Y-56150000D03*
G04 #@! TD*
D13*
G04 #@! TO.C,J1*
X177890000Y-59060000D03*
D14*
X172530000Y-59060000D03*
X172530000Y-67700000D03*
D13*
X177890000Y-67700000D03*
G04 #@! TD*
D10*
G04 #@! TO.C,H3*
X177947056Y-97947056D03*
X173850000Y-96250000D03*
X174552944Y-94552944D03*
D11*
X176250000Y-96250000D03*
D10*
X176250000Y-93850000D03*
X177947056Y-94552944D03*
X174552944Y-97947056D03*
X176250000Y-98650000D03*
X178650000Y-96250000D03*
G04 #@! TD*
D15*
G04 #@! TO.C,J3*
X121350000Y-89170000D03*
X121350000Y-76470000D03*
D16*
X136590000Y-87900000D03*
D17*
X136590000Y-85868000D03*
X136590000Y-83836000D03*
X136590000Y-81804000D03*
X136590000Y-79772000D03*
X136590000Y-77740000D03*
X139130000Y-88916000D03*
X139130000Y-86884000D03*
X139130000Y-84852000D03*
X139130000Y-80788000D03*
X139130000Y-78756000D03*
X139130000Y-76724000D03*
D18*
X141670000Y-88916000D03*
X141670000Y-86376000D03*
X141670000Y-79264000D03*
X141670000Y-76724000D03*
D19*
X118175000Y-90884500D03*
D20*
X118175000Y-74755500D03*
G04 #@! TD*
D15*
G04 #@! TO.C,J4*
X168480000Y-76500000D03*
X168480000Y-89200000D03*
D16*
X153240000Y-77770000D03*
D17*
X153240000Y-79802000D03*
X153240000Y-81834000D03*
X153240000Y-83866000D03*
X153240000Y-85898000D03*
X153240000Y-87930000D03*
X150700000Y-76754000D03*
X150700000Y-78786000D03*
X150700000Y-80818000D03*
X150700000Y-84882000D03*
X150700000Y-86914000D03*
X150700000Y-88946000D03*
D18*
X148160000Y-76754000D03*
X148160000Y-79294000D03*
X148160000Y-86406000D03*
X148160000Y-88946000D03*
D20*
X171655000Y-90914500D03*
D19*
X171655000Y-74785500D03*
G04 #@! TD*
D10*
G04 #@! TO.C,H2*
X111350000Y-96250000D03*
X115447056Y-94552944D03*
X112052944Y-97947056D03*
X113750000Y-93850000D03*
X116150000Y-96250000D03*
X113750000Y-98650000D03*
X115447056Y-97947056D03*
D11*
X113750000Y-96250000D03*
D10*
X112052944Y-94552944D03*
G04 #@! TD*
D21*
G04 #@! TO.C,SW1*
X124510000Y-53060000D03*
X129510000Y-53060000D03*
G04 #@! TD*
D22*
G04 #@! TO.C,FID4*
X119370000Y-51530000D03*
G04 #@! TD*
G04 #@! TO.C,FID6*
X170450000Y-51500000D03*
G04 #@! TD*
D23*
G04 #@! TO.C,J2*
X116750000Y-69550000D03*
X116750000Y-69050000D03*
X116750000Y-68550000D03*
X116750000Y-68050000D03*
X116750000Y-67550000D03*
X116750000Y-67050000D03*
X116750000Y-66550000D03*
X116750000Y-66050000D03*
X116750000Y-65550000D03*
X116750000Y-65050000D03*
D24*
X113500000Y-63150000D03*
X113500000Y-71450000D03*
G04 #@! TD*
D22*
G04 #@! TO.C,FID5*
X170970000Y-97510000D03*
G04 #@! TD*
M02*
