G04 #@! TF.GenerationSoftware,KiCad,Pcbnew,5.99.0-unknown-r23941-4f651901*
G04 #@! TF.CreationDate,2020-11-30T00:39:53+01:00*
G04 #@! TF.ProjectId,whisperbounce,77686973-7065-4726-926f-756e63652e6b,rev?*
G04 #@! TF.SameCoordinates,Original*
G04 #@! TF.FileFunction,Copper,L4,Bot*
G04 #@! TF.FilePolarity,Positive*
%FSLAX46Y46*%
G04 Gerber Fmt 4.6, Leading zero omitted, Abs format (unit mm)*
G04 Created by KiCad (PCBNEW 5.99.0-unknown-r23941-4f651901) date 2020-11-30 00:39:53*
%MOMM*%
%LPD*%
G01*
G04 APERTURE LIST*
G04 #@! TA.AperFunction,ComponentPad*
%ADD10C,0.800000*%
G04 #@! TD*
G04 #@! TA.AperFunction,ComponentPad*
%ADD11C,6.400000*%
G04 #@! TD*
G04 #@! TA.AperFunction,ComponentPad*
%ADD12C,0.400000*%
G04 #@! TD*
G04 #@! TA.AperFunction,ComponentPad*
%ADD13C,0.500000*%
G04 #@! TD*
G04 #@! TA.AperFunction,SMDPad,CuDef*
%ADD14R,6.500000X6.500000*%
G04 #@! TD*
G04 #@! TA.AperFunction,SMDPad,CuDef*
%ADD15R,6.000000X6.000000*%
G04 #@! TD*
G04 #@! TA.AperFunction,ComponentPad*
%ADD16O,2.600000X1.100000*%
G04 #@! TD*
G04 #@! TA.AperFunction,ComponentPad*
%ADD17O,2.100000X1.100000*%
G04 #@! TD*
G04 #@! TA.AperFunction,ComponentPad*
%ADD18R,1.524000X1.524000*%
G04 #@! TD*
G04 #@! TA.AperFunction,ComponentPad*
%ADD19C,1.524000*%
G04 #@! TD*
G04 #@! TA.AperFunction,ComponentPad*
%ADD20C,1.800000*%
G04 #@! TD*
G04 #@! TA.AperFunction,ComponentPad*
%ADD21C,2.630000*%
G04 #@! TD*
G04 #@! TA.AperFunction,ComponentPad*
%ADD22C,2.610000*%
G04 #@! TD*
G04 #@! TA.AperFunction,SMDPad,CuDef*
%ADD23C,0.750000*%
G04 #@! TD*
G04 #@! TA.AperFunction,SMDPad,CuDef*
%ADD24R,1.300000X0.300000*%
G04 #@! TD*
G04 #@! TA.AperFunction,SMDPad,CuDef*
%ADD25R,2.200000X1.800000*%
G04 #@! TD*
G04 #@! TA.AperFunction,ViaPad*
%ADD26C,0.450000*%
G04 #@! TD*
G04 #@! TA.AperFunction,Conductor*
%ADD27C,0.250000*%
G04 #@! TD*
G04 #@! TA.AperFunction,Conductor*
%ADD28C,0.200000*%
G04 #@! TD*
G04 #@! TA.AperFunction,Conductor*
%ADD29C,0.500000*%
G04 #@! TD*
G04 #@! TA.AperFunction,Conductor*
%ADD30C,0.120000*%
G04 #@! TD*
G04 #@! TA.AperFunction,Conductor*
%ADD31C,0.150000*%
G04 #@! TD*
G04 #@! TA.AperFunction,Conductor*
%ADD32C,0.100000*%
G04 #@! TD*
G04 APERTURE END LIST*
D10*
G04 #@! TO.P,H4,1,1*
G04 #@! TO.N,Net-(H4-Pad1)*
X111350000Y-53750000D03*
X113750000Y-51350000D03*
X113750000Y-56150000D03*
X115447056Y-52052944D03*
X112052944Y-52052944D03*
X112052944Y-55447056D03*
X116150000Y-53750000D03*
X115447056Y-55447056D03*
D11*
X113750000Y-53750000D03*
G04 #@! TD*
D12*
G04 #@! TO.P,U2,31,EPAD*
G04 #@! TO.N,GND*
X162400000Y-60630000D03*
X163000000Y-63030000D03*
X163000000Y-61830000D03*
X163000000Y-60630000D03*
X162400000Y-61830000D03*
X162400000Y-63030000D03*
G04 #@! TD*
D13*
G04 #@! TO.P,U9,65,GND*
G04 #@! TO.N,GND*
X133250000Y-68800000D03*
X135650000Y-66400000D03*
X134450000Y-70000000D03*
X134450000Y-65200000D03*
X135650000Y-67600000D03*
X134450000Y-68800000D03*
X133250000Y-70000000D03*
X134450000Y-64000000D03*
X130850000Y-67600000D03*
X132050000Y-66400000D03*
X133250000Y-65200000D03*
X130850000Y-70000000D03*
X134450000Y-66400000D03*
X133250000Y-67600000D03*
X135650000Y-65200000D03*
X133250000Y-66400000D03*
X130850000Y-65200000D03*
X132050000Y-64000000D03*
X129650000Y-70000000D03*
X132050000Y-70000000D03*
X130850000Y-64000000D03*
X132050000Y-65200000D03*
D14*
X132650000Y-67000000D03*
D13*
X132050000Y-68800000D03*
X134450000Y-67600000D03*
X135650000Y-64000000D03*
X130850000Y-68800000D03*
X129650000Y-67600000D03*
X130850000Y-66400000D03*
X129650000Y-66400000D03*
X135650000Y-68800000D03*
X132050000Y-67600000D03*
X133250000Y-64000000D03*
X129650000Y-64000000D03*
X135650000Y-70000000D03*
X129650000Y-68800000D03*
X129650000Y-65200000D03*
G04 #@! TD*
G04 #@! TO.P,U6,65,GND*
G04 #@! TO.N,GND*
X151035000Y-60855000D03*
X146910000Y-62230000D03*
X146910000Y-63605000D03*
X148285000Y-64980000D03*
X152410000Y-59480000D03*
X152410000Y-64980000D03*
X152410000Y-60855000D03*
D15*
X149660000Y-62230000D03*
D13*
X146910000Y-59480000D03*
X151035000Y-62230000D03*
X146910000Y-64980000D03*
X149660000Y-64980000D03*
X148285000Y-60855000D03*
X152410000Y-63605000D03*
X148285000Y-59480000D03*
X151035000Y-64980000D03*
X148285000Y-62230000D03*
X149660000Y-63605000D03*
X148285000Y-63605000D03*
X149660000Y-62230000D03*
X149660000Y-59480000D03*
X151035000Y-59480000D03*
X152410000Y-62230000D03*
X151035000Y-63605000D03*
X146910000Y-60855000D03*
X149660000Y-60855000D03*
G04 #@! TD*
D10*
G04 #@! TO.P,H1,1,1*
G04 #@! TO.N,Net-(H1-Pad1)*
X173850000Y-53750000D03*
X177947056Y-55447056D03*
X176250000Y-51350000D03*
X174552944Y-55447056D03*
X178650000Y-53750000D03*
X177947056Y-52052944D03*
D11*
X176250000Y-53750000D03*
D10*
X174552944Y-52052944D03*
X176250000Y-56150000D03*
G04 #@! TD*
D16*
G04 #@! TO.P,J1,S1,SHIELD*
G04 #@! TO.N,GND*
X177890000Y-59060000D03*
D17*
X172530000Y-59060000D03*
X172530000Y-67700000D03*
D16*
X177890000Y-67700000D03*
G04 #@! TD*
D10*
G04 #@! TO.P,H3,1,1*
G04 #@! TO.N,Net-(H3-Pad1)*
X177947056Y-97947056D03*
X173850000Y-96250000D03*
X174552944Y-94552944D03*
D11*
X176250000Y-96250000D03*
D10*
X176250000Y-93850000D03*
X177947056Y-94552944D03*
X174552944Y-97947056D03*
X176250000Y-98650000D03*
X178650000Y-96250000D03*
G04 #@! TD*
D18*
G04 #@! TO.P,J3,1,MXCT3*
G04 #@! TO.N,Net-(C79-Pad2)*
X136590000Y-87900000D03*
D19*
G04 #@! TO.P,J3,2,MX3-*
G04 #@! TO.N,/ETH Switch/ETH0_C-*
X136590000Y-85868000D03*
G04 #@! TO.P,J3,3,MX3+*
G04 #@! TO.N,/ETH Switch/ETH0_C+*
X136590000Y-83836000D03*
G04 #@! TO.P,J3,4,MX2+*
G04 #@! TO.N,/ETH Switch/ETH0_B+*
X136590000Y-81804000D03*
G04 #@! TO.P,J3,5,MX2-*
G04 #@! TO.N,/ETH Switch/ETH0_B-*
X136590000Y-79772000D03*
G04 #@! TO.P,J3,6,MXCT2*
G04 #@! TO.N,Net-(C78-Pad2)*
X136590000Y-77740000D03*
G04 #@! TO.P,J3,7,MXCT4*
G04 #@! TO.N,Net-(C80-Pad2)*
X139130000Y-88916000D03*
G04 #@! TO.P,J3,8,MX4+*
G04 #@! TO.N,/ETH Switch/ETH0_D+*
X139130000Y-86884000D03*
G04 #@! TO.P,J3,9,MX4-*
G04 #@! TO.N,/ETH Switch/ETH0_D-*
X139130000Y-84852000D03*
G04 #@! TO.P,J3,10,MX1-*
G04 #@! TO.N,/ETH Switch/ETH0_A-*
X139130000Y-80788000D03*
G04 #@! TO.P,J3,11,MX1+*
G04 #@! TO.N,/ETH Switch/ETH0_A+*
X139130000Y-78756000D03*
G04 #@! TO.P,J3,12,MXCT1*
G04 #@! TO.N,Net-(C77-Pad2)*
X139130000Y-76724000D03*
D20*
G04 #@! TO.P,J3,13,LED2-*
G04 #@! TO.N,/ETH Switch/ETH0_LED1*
X141670000Y-88916000D03*
G04 #@! TO.P,J3,14,LED2+*
G04 #@! TO.N,Net-(J3-Pad14)*
X141670000Y-86376000D03*
G04 #@! TO.P,J3,15,LED1-*
G04 #@! TO.N,/ETH Switch/ETH0_LED0*
X141670000Y-79264000D03*
G04 #@! TO.P,J3,16,LED1+*
G04 #@! TO.N,Net-(J3-Pad16)*
X141670000Y-76724000D03*
D21*
G04 #@! TO.P,J3,SH*
G04 #@! TO.N,Net-(FB9-Pad2)*
X118175000Y-90884500D03*
D22*
X118175000Y-74755500D03*
G04 #@! TD*
D18*
G04 #@! TO.P,J4,1,MXCT3*
G04 #@! TO.N,Net-(C83-Pad2)*
X153240000Y-77770000D03*
D19*
G04 #@! TO.P,J4,2,MX3-*
G04 #@! TO.N,/ETH Switch/ETH1_C-*
X153240000Y-79802000D03*
G04 #@! TO.P,J4,3,MX3+*
G04 #@! TO.N,/ETH Switch/ETH1_C+*
X153240000Y-81834000D03*
G04 #@! TO.P,J4,4,MX2+*
G04 #@! TO.N,/ETH Switch/ETH1_B+*
X153240000Y-83866000D03*
G04 #@! TO.P,J4,5,MX2-*
G04 #@! TO.N,/ETH Switch/ETH1_B-*
X153240000Y-85898000D03*
G04 #@! TO.P,J4,6,MXCT2*
G04 #@! TO.N,Net-(C82-Pad2)*
X153240000Y-87930000D03*
G04 #@! TO.P,J4,7,MXCT4*
G04 #@! TO.N,Net-(C84-Pad2)*
X150700000Y-76754000D03*
G04 #@! TO.P,J4,8,MX4+*
G04 #@! TO.N,/ETH Switch/ETH1_D+*
X150700000Y-78786000D03*
G04 #@! TO.P,J4,9,MX4-*
G04 #@! TO.N,/ETH Switch/ETH1_D-*
X150700000Y-80818000D03*
G04 #@! TO.P,J4,10,MX1-*
G04 #@! TO.N,/ETH Switch/ETH1_A-*
X150700000Y-84882000D03*
G04 #@! TO.P,J4,11,MX1+*
G04 #@! TO.N,/ETH Switch/ETH1_A+*
X150700000Y-86914000D03*
G04 #@! TO.P,J4,12,MXCT1*
G04 #@! TO.N,Net-(C81-Pad2)*
X150700000Y-88946000D03*
D20*
G04 #@! TO.P,J4,13,LED2-*
G04 #@! TO.N,/ETH Switch/ETH1_LED1*
X148160000Y-76754000D03*
G04 #@! TO.P,J4,14,LED2+*
G04 #@! TO.N,Net-(J4-Pad14)*
X148160000Y-79294000D03*
G04 #@! TO.P,J4,15,LED1-*
G04 #@! TO.N,/ETH Switch/ETH1_LED0*
X148160000Y-86406000D03*
G04 #@! TO.P,J4,16,LED1+*
G04 #@! TO.N,Net-(J4-Pad16)*
X148160000Y-88946000D03*
D22*
G04 #@! TO.P,J4,SH*
G04 #@! TO.N,Net-(FB10-Pad2)*
X171655000Y-90914500D03*
D21*
X171655000Y-74785500D03*
G04 #@! TD*
D10*
G04 #@! TO.P,H2,1,1*
G04 #@! TO.N,Net-(H2-Pad1)*
X111350000Y-96250000D03*
X115447056Y-94552944D03*
X112052944Y-97947056D03*
X113750000Y-93850000D03*
X116150000Y-96250000D03*
X113750000Y-98650000D03*
X115447056Y-97947056D03*
D11*
X113750000Y-96250000D03*
D10*
X112052944Y-94552944D03*
G04 #@! TD*
D23*
G04 #@! TO.P,FID4,*
G04 #@! TO.N,*
X119370000Y-51530000D03*
G04 #@! TD*
G04 #@! TO.P,FID6,*
G04 #@! TO.N,*
X170450000Y-51500000D03*
G04 #@! TD*
D24*
G04 #@! TO.P,J2,1,Pin_1*
G04 #@! TO.N,+3V3*
X116750000Y-69550000D03*
G04 #@! TO.P,J2,2,Pin_2*
G04 #@! TO.N,/controller/TX*
X116750000Y-69050000D03*
G04 #@! TO.P,J2,3,Pin_3*
G04 #@! TO.N,GND*
X116750000Y-68550000D03*
G04 #@! TO.P,J2,4,Pin_4*
G04 #@! TO.N,/controller/RX*
X116750000Y-68050000D03*
G04 #@! TO.P,J2,5,Pin_5*
G04 #@! TO.N,/controller/RST*
X116750000Y-67550000D03*
G04 #@! TO.P,J2,6,Pin_6*
G04 #@! TO.N,/controller/SWD_CLK*
X116750000Y-67050000D03*
G04 #@! TO.P,J2,7,Pin_7*
G04 #@! TO.N,/controller/SWD_DIO*
X116750000Y-66550000D03*
G04 #@! TO.P,J2,8,Pin_8*
G04 #@! TO.N,/controller/SWD_SWO*
X116750000Y-66050000D03*
G04 #@! TO.P,J2,9*
G04 #@! TO.N,N/C*
X116750000Y-65550000D03*
G04 #@! TO.P,J2,10*
X116750000Y-65050000D03*
D25*
G04 #@! TO.P,J2,MP,MountPin*
G04 #@! TO.N,GND*
X113500000Y-63150000D03*
X113500000Y-71450000D03*
G04 #@! TD*
D23*
G04 #@! TO.P,FID5,*
G04 #@! TO.N,*
X170970000Y-97510000D03*
G04 #@! TD*
D26*
G04 #@! TO.N,GND*
X114350000Y-72750000D03*
X113095000Y-63675000D03*
X120995000Y-69525000D03*
G04 #@! TO.N,+5V*
X167970000Y-57840000D03*
X176010000Y-69120000D03*
G04 #@! TO.N,+3V3*
X163274093Y-67891593D03*
X169820000Y-69930000D03*
X161490000Y-51150000D03*
X115350000Y-61950000D03*
X161020000Y-62830000D03*
X164590000Y-56570000D03*
X143390000Y-68730000D03*
X161060000Y-51160000D03*
X159650000Y-70175000D03*
X163140000Y-56560000D03*
X162062677Y-65446545D03*
X161180000Y-56560000D03*
X125500000Y-53650000D03*
X165320000Y-71990000D03*
X169460000Y-67640000D03*
X114450000Y-66650000D03*
X141244202Y-56888546D03*
G04 #@! TO.N,/USB3_RX-*
X155460000Y-60695000D03*
X156135545Y-63585545D03*
G04 #@! TO.N,/USB3_RX+*
X156524455Y-63974455D03*
X155460000Y-60145000D03*
G04 #@! TO.N,/controller/RST*
X114154526Y-65500000D03*
G04 #@! TO.N,/~ETH_RST*
X123720000Y-58820000D03*
X117630000Y-71960000D03*
G04 #@! TO.N,/UFP_USB2_D-*
X174369721Y-63655000D03*
X167009224Y-66495882D03*
X170370401Y-65240363D03*
G04 #@! TO.N,/UFP_USB2_D+*
X167615144Y-64905946D03*
X166459224Y-66495882D03*
X174369721Y-63105000D03*
G04 #@! TO.N,/USB-C/CC2*
X170250000Y-61860000D03*
X174270000Y-62390000D03*
X160580000Y-59830000D03*
G04 #@! TO.N,/USB-C/CC1*
X160601982Y-60379563D03*
X170160000Y-63370000D03*
G04 #@! TO.N,/controller/SWD_SWO*
X121055343Y-60855343D03*
G04 #@! TO.N,/controller/SWD_DIO*
X123050000Y-63500000D03*
G04 #@! TO.N,/controller/SWD_CLK*
X121700000Y-60600000D03*
G04 #@! TO.N,/controller/RX*
X115600000Y-69500000D03*
G04 #@! TO.N,/controller/TX*
X115250000Y-68500000D03*
G04 #@! TO.N,/ETH Switch/ETH0_C-*
X127440000Y-84850000D03*
G04 #@! TO.N,/ETH Switch/ETH0_C+*
X127440000Y-84270000D03*
G04 #@! TO.N,/ETH Switch/ETH0_B+*
X128010000Y-80680000D03*
G04 #@! TO.N,/ETH Switch/ETH0_B-*
X128010000Y-80100000D03*
G04 #@! TO.N,/ETH Switch/ETH0_D+*
X131560000Y-86590000D03*
G04 #@! TO.N,/ETH Switch/ETH0_D-*
X132140000Y-86590000D03*
G04 #@! TO.N,/ETH Switch/ETH0_A-*
X125040000Y-75530000D03*
G04 #@! TO.N,/ETH Switch/ETH0_A+*
X125040000Y-74950000D03*
G04 #@! TO.N,/ETH Switch/ETH0_LED0*
X143020000Y-91600000D03*
G04 #@! TO.N,/ETH Switch/ETH1_C-*
X136490000Y-73170000D03*
G04 #@! TO.N,/ETH Switch/ETH1_C+*
X136490000Y-73750000D03*
G04 #@! TO.N,/ETH Switch/ETH1_B+*
X134200000Y-74410000D03*
G04 #@! TO.N,/ETH Switch/ETH1_B-*
X134200000Y-74990000D03*
G04 #@! TO.N,/ETH Switch/ETH1_D+*
X149520000Y-72680000D03*
G04 #@! TO.N,/ETH Switch/ETH1_D-*
X148940000Y-72680000D03*
G04 #@! TO.N,/ETH Switch/ETH1_A-*
X133340000Y-75010000D03*
G04 #@! TO.N,/ETH Switch/ETH1_A+*
X132760000Y-75010000D03*
G04 #@! TO.N,/ETH Switch/ETH1_LED1*
X144140000Y-72630000D03*
X131850000Y-61260000D03*
G04 #@! TO.N,/ETH Switch/ETH1_LED0*
X131783800Y-61943800D03*
G04 #@! TO.N,/RXD0*
X140082843Y-65282843D03*
X142675000Y-67200000D03*
G04 #@! TO.N,/RXD1*
X141004998Y-65800000D03*
X141700000Y-67305002D03*
G04 #@! TO.N,/TXD3*
X140000000Y-60240000D03*
X137420000Y-65270000D03*
G04 #@! TO.N,/TXD1*
X140060000Y-61240000D03*
X137298647Y-64398502D03*
G04 #@! TO.N,/TXD2*
X137686235Y-64788729D03*
X139690000Y-60730000D03*
G04 #@! TO.N,/TXD0*
X137690000Y-63990000D03*
X139690000Y-61750000D03*
G04 #@! TO.N,/uC_USB_D+*
X123100000Y-60175000D03*
X162650000Y-70195000D03*
G04 #@! TO.N,/uC_USB_D-*
X123100000Y-59625000D03*
X162650000Y-69645000D03*
G04 #@! TO.N,/USB ETH/EEPROM_CS*
X148725000Y-65900000D03*
X159750000Y-71125000D03*
G04 #@! TO.N,Net-(U5-Pad3)*
X149400000Y-65900000D03*
X155425000Y-72025000D03*
G04 #@! TO.N,/LAN_MDC*
X149310000Y-56530000D03*
X123240000Y-65980000D03*
G04 #@! TO.N,/LAN_MDIO*
X150030000Y-56540000D03*
X122920000Y-65500000D03*
G04 #@! TO.N,/~LAN_PHY_INT*
X123180000Y-65010000D03*
X152900000Y-65910000D03*
G04 #@! TO.N,/ETH_SDO*
X124419989Y-71390000D03*
X127306801Y-62296801D03*
G04 #@! TO.N,/ETH_SCL*
X117600452Y-70779548D03*
X125015617Y-64685638D03*
G04 #@! TO.N,/~ETH_SCS*
X126019675Y-63191062D03*
X117640000Y-71340000D03*
G04 #@! TO.N,/CLK_25M*
X138960000Y-59600000D03*
X127860000Y-67690000D03*
G04 #@! TD*
D27*
G04 #@! TO.N,GND*
X116750000Y-68550000D02*
X120020000Y-68550000D01*
X120020000Y-68550000D02*
X120995000Y-69525000D01*
X113500000Y-71450000D02*
X113500000Y-71900000D01*
X113500000Y-71900000D02*
X114350000Y-72750000D01*
G04 #@! TO.N,+5V*
X167970000Y-57840000D02*
X169965010Y-59835010D01*
X169965010Y-59835010D02*
X174291012Y-59835010D01*
X176010000Y-61553998D02*
X176010000Y-69120000D01*
X174291012Y-59835010D02*
X176010000Y-61553998D01*
D28*
G04 #@! TO.N,+3V3*
X141774999Y-57419343D02*
X141244202Y-56888546D01*
D27*
X163750000Y-68367500D02*
X163274093Y-67891593D01*
D28*
X143390000Y-68730000D02*
X143875001Y-68244999D01*
D29*
X159350000Y-59020000D02*
X159350000Y-61160000D01*
D27*
X114225001Y-68791003D02*
X114225001Y-66874999D01*
D29*
X125500000Y-53650000D02*
X125275001Y-53874999D01*
X163140000Y-56560000D02*
X163364999Y-56335001D01*
D27*
X114225001Y-66874999D02*
X114450000Y-66650000D01*
D28*
X143875001Y-68244999D02*
X143875001Y-66335001D01*
D29*
X169268998Y-69930000D02*
X169820000Y-69930000D01*
X162062677Y-65446545D02*
X162062677Y-63872677D01*
X161180000Y-56560000D02*
X160804999Y-56184999D01*
X165320000Y-71990000D02*
X167208998Y-71990000D01*
X161480000Y-51160000D02*
X161490000Y-51150000D01*
X125275001Y-53874999D02*
X122643999Y-53874999D01*
X169820000Y-68000000D02*
X169460000Y-67640000D01*
D27*
X163750000Y-70875000D02*
X163750000Y-68367500D01*
D29*
X128550000Y-50600000D02*
X125500000Y-53650000D01*
X162062677Y-63872677D02*
X161020000Y-62830000D01*
X160804999Y-56184999D02*
X160804999Y-53379999D01*
X164064999Y-57735001D02*
X164590000Y-57210000D01*
X115350000Y-61168998D02*
X115350000Y-61950000D01*
X161020000Y-62830000D02*
X159350000Y-61160000D01*
X122643999Y-53874999D02*
X115350000Y-61168998D01*
D27*
X115383999Y-69950001D02*
X114225001Y-68791003D01*
D29*
X164590000Y-57210000D02*
X164590000Y-56570000D01*
X163274093Y-67891593D02*
X163274093Y-66657961D01*
X163364999Y-53024999D02*
X161490000Y-51150000D01*
D28*
X143875001Y-66335001D02*
X141774999Y-64234999D01*
D27*
X160850000Y-71375000D02*
X163125000Y-71375000D01*
D29*
X160804999Y-53379999D02*
X160804999Y-52654999D01*
D28*
X141774999Y-64234999D02*
X141774999Y-57419343D01*
D29*
X163274093Y-66657961D02*
X162062677Y-65446545D01*
X169820000Y-69930000D02*
X169820000Y-68000000D01*
X161060000Y-51160000D02*
X161480000Y-51160000D01*
X160634999Y-57735001D02*
X159350000Y-59020000D01*
X160804999Y-52654999D02*
X158750000Y-50600000D01*
X169208407Y-67891593D02*
X169460000Y-67640000D01*
X158750000Y-50600000D02*
X128550000Y-50600000D01*
X167208998Y-71990000D02*
X169268998Y-69930000D01*
D27*
X159650000Y-70175000D02*
X160850000Y-71375000D01*
D29*
X163274093Y-67891593D02*
X169208407Y-67891593D01*
D27*
X163250000Y-71375000D02*
X163750000Y-70875000D01*
X116750000Y-69550000D02*
X116349999Y-69950001D01*
D29*
X163364999Y-56335001D02*
X163364999Y-53024999D01*
X164064999Y-57735001D02*
X160634999Y-57735001D01*
D27*
X116349999Y-69950001D02*
X115383999Y-69950001D01*
X163125000Y-71375000D02*
X163250000Y-71375000D01*
D30*
G04 #@! TO.N,/USB3_RX-*
X156381488Y-62505000D02*
X156386484Y-62460661D01*
X156494291Y-62325476D02*
X156536406Y-62310739D01*
X156780000Y-62106488D02*
X156780000Y-61425564D01*
X156760268Y-62918546D02*
X156736529Y-62880765D01*
X156625083Y-62810739D02*
X156536406Y-62800748D01*
X156368891Y-63585545D02*
X156780000Y-63174436D01*
X156424960Y-62380765D02*
X156456510Y-62349215D01*
X156401221Y-62418546D02*
X156424960Y-62380765D01*
X156536406Y-62310739D02*
X156625083Y-62300748D01*
X156736529Y-62230722D02*
X156760268Y-62192941D01*
X156780000Y-63005000D02*
X156775005Y-62960661D01*
X156536406Y-62800748D02*
X156494291Y-62786011D01*
X156667198Y-62286011D02*
X156704979Y-62262272D01*
X156780000Y-63174436D02*
X156780000Y-63005000D01*
X156135545Y-63585545D02*
X156368891Y-63585545D01*
X156456510Y-62349215D02*
X156494291Y-62325476D01*
X156401221Y-62692941D02*
X156386484Y-62650826D01*
X156775005Y-62150826D02*
X156780000Y-62106488D01*
X156736529Y-62880765D02*
X156704979Y-62849215D01*
X155884436Y-60530000D02*
X155625000Y-60530000D01*
X156667198Y-62825476D02*
X156625083Y-62810739D01*
X155625000Y-60530000D02*
X155460000Y-60695000D01*
X156386484Y-62650826D02*
X156381488Y-62606488D01*
X156760268Y-62192941D02*
X156775005Y-62150826D01*
X156494291Y-62786011D02*
X156456510Y-62762272D01*
X156780000Y-61425564D02*
X155884436Y-60530000D01*
X156381488Y-62606488D02*
X156381488Y-62505000D01*
X156456510Y-62762272D02*
X156424960Y-62730722D01*
X156424960Y-62730722D02*
X156401221Y-62692941D01*
X156704979Y-62262272D02*
X156736529Y-62230722D01*
X156625083Y-62300748D02*
X156667198Y-62286011D01*
X156775005Y-62960661D02*
X156760268Y-62918546D01*
X156386484Y-62460661D02*
X156401221Y-62418546D01*
X156704979Y-62849215D02*
X156667198Y-62825476D01*
G04 #@! TO.N,/USB3_RX+*
X155625000Y-60310000D02*
X155460000Y-60145000D01*
X156524455Y-63741109D02*
X157000000Y-63265564D01*
X157000000Y-61334436D02*
X155975564Y-60310000D01*
X155975564Y-60310000D02*
X155625000Y-60310000D01*
X156524455Y-63974455D02*
X156524455Y-63741109D01*
X157000000Y-63265564D02*
X157000000Y-61334436D01*
D27*
G04 #@! TO.N,/controller/RST*
X116750000Y-67550000D02*
X115650000Y-67550000D01*
X115650000Y-67550000D02*
X114900001Y-66800001D01*
X114900001Y-65863999D02*
X114536002Y-65500000D01*
X114900001Y-66800001D02*
X114900001Y-65863999D01*
X114536002Y-65500000D02*
X114154526Y-65500000D01*
D28*
G04 #@! TO.N,/~ETH_RST*
X117175451Y-71505451D02*
X117175451Y-70575547D01*
X122760000Y-58820000D02*
X123720000Y-58820000D01*
X123770001Y-62300001D02*
X122150000Y-60680000D01*
X121474999Y-65704003D02*
X123770001Y-63409001D01*
X121474999Y-69674003D02*
X121474999Y-65704003D01*
X122150000Y-59430000D02*
X122760000Y-58820000D01*
X117800997Y-69950001D02*
X121199001Y-69950001D01*
X122150000Y-60680000D02*
X122150000Y-59430000D01*
X117175451Y-70575547D02*
X117800997Y-69950001D01*
X121199001Y-69950001D02*
X121474999Y-69674003D01*
X117630000Y-71960000D02*
X117175451Y-71505451D01*
X123770001Y-63409001D02*
X123770001Y-62300001D01*
D30*
G04 #@! TO.N,/UFP_USB2_D-*
X171935564Y-65070000D02*
X170240000Y-65070000D01*
X170370401Y-65240363D02*
X170240000Y-65109962D01*
X167995564Y-65070000D02*
X166844224Y-66221340D01*
X173515564Y-63490000D02*
X171935564Y-65070000D01*
X170240000Y-65109962D02*
X170240000Y-65070000D01*
X166844224Y-66330882D02*
X167009224Y-66495882D01*
X170240000Y-65070000D02*
X167995564Y-65070000D01*
X166844224Y-66221340D02*
X166844224Y-66330882D01*
X174204721Y-63490000D02*
X173515564Y-63490000D01*
X174369721Y-63655000D02*
X174204721Y-63490000D01*
G04 #@! TO.N,/UFP_USB2_D+*
X166624224Y-66330882D02*
X166459224Y-66495882D01*
X167615144Y-64905946D02*
X167615144Y-65085144D01*
X173424436Y-63270000D02*
X171844436Y-64850000D01*
X174369721Y-63105000D02*
X174204721Y-63270000D01*
X167904436Y-64850000D02*
X167642218Y-65112218D01*
X166624224Y-66130212D02*
X166624224Y-66330882D01*
X167642218Y-65112218D02*
X166624224Y-66130212D01*
X174204721Y-63270000D02*
X173424436Y-63270000D01*
X167615144Y-65085144D02*
X167642218Y-65112218D01*
X171844436Y-64850000D02*
X167904436Y-64850000D01*
D31*
G04 #@! TO.N,/USB-C/CC2*
X170250000Y-61860000D02*
X168480000Y-60090000D01*
X168220000Y-59830000D02*
X160580000Y-59830000D01*
X170780000Y-62390000D02*
X170250000Y-61860000D01*
X174270000Y-62390000D02*
X170780000Y-62390000D01*
X168480000Y-60090000D02*
X168220000Y-59830000D01*
G04 #@! TO.N,/USB-C/CC1*
X168130010Y-60340010D02*
X168044999Y-60254999D01*
X168044999Y-60254999D02*
X160726546Y-60254999D01*
X170160000Y-62370000D02*
X168130010Y-60340010D01*
X170160000Y-63370000D02*
X170160000Y-62370000D01*
X160726546Y-60254999D02*
X160601982Y-60379563D01*
D27*
G04 #@! TO.N,/controller/SWD_SWO*
X120550000Y-61360686D02*
X121055343Y-60855343D01*
X116750000Y-66050000D02*
X117368214Y-66050000D01*
X120550000Y-62868214D02*
X120550000Y-61360686D01*
X117368214Y-66050000D02*
X120550000Y-62868214D01*
G04 #@! TO.N,/controller/SWD_DIO*
X117600000Y-66550000D02*
X120650000Y-63500000D01*
X120650000Y-63500000D02*
X123050000Y-63500000D01*
X116750000Y-66550000D02*
X117600000Y-66550000D01*
G04 #@! TO.N,/controller/SWD_CLK*
X116750000Y-67050000D02*
X116131786Y-67050000D01*
X116131786Y-67050000D02*
X115874990Y-66793204D01*
X121505342Y-60405342D02*
X121700000Y-60600000D01*
X115874990Y-66793204D02*
X115874990Y-64806796D01*
X120276444Y-60405342D02*
X121505342Y-60405342D01*
X115874990Y-64806796D02*
X120276444Y-60405342D01*
G04 #@! TO.N,/controller/RX*
X114799999Y-67850001D02*
X115266003Y-67850001D01*
X114799999Y-68699999D02*
X114799999Y-67850001D01*
X115266003Y-67850001D02*
X115466002Y-68050000D01*
X115600000Y-69500000D02*
X114799999Y-68699999D01*
X115466002Y-68050000D02*
X116750000Y-68050000D01*
G04 #@! TO.N,/controller/TX*
X115250000Y-68500000D02*
X115800000Y-69050000D01*
X115800000Y-69050000D02*
X116750000Y-69050000D01*
D32*
G04 #@! TO.N,/ETH Switch/ETH0_C-*
X133222196Y-85549341D02*
X133193276Y-85631988D01*
X132402000Y-85152000D02*
X132397361Y-85110834D01*
X136590000Y-85868000D02*
X135689000Y-84967000D01*
X133084777Y-85768042D02*
X133010637Y-85814627D01*
X133993019Y-84967000D02*
X133906009Y-84957196D01*
X132840980Y-85853350D02*
X132793019Y-85853350D01*
X133146691Y-85706128D02*
X133084777Y-85768042D01*
X132440723Y-85631988D02*
X132411803Y-85549341D01*
X133336731Y-84098970D02*
X133301654Y-84121011D01*
X133417000Y-84080650D02*
X133375833Y-84085288D01*
X133532345Y-84121011D02*
X133497268Y-84098970D01*
X132927990Y-85843547D02*
X132840980Y-85853350D01*
X132383679Y-85071732D02*
X132361638Y-85036655D01*
X133823362Y-84928276D02*
X133749222Y-84881691D01*
X133236638Y-84224483D02*
X133232000Y-84265650D01*
X132549222Y-85768042D02*
X132487308Y-85706128D01*
X133561638Y-84150304D02*
X133532345Y-84121011D01*
X132258166Y-84971639D02*
X132217000Y-84967000D01*
X133602000Y-84575980D02*
X133602000Y-84265650D01*
X132297268Y-84985321D02*
X132258166Y-84971639D01*
X133583679Y-84185381D02*
X133561638Y-84150304D01*
X127811730Y-84967000D02*
X127694730Y-84850000D01*
X133375833Y-84085288D02*
X133336731Y-84098970D01*
X132217000Y-84967000D02*
X127811730Y-84967000D01*
X133193276Y-85631988D02*
X133146691Y-85706128D01*
X133749222Y-84881691D02*
X133687308Y-84819777D01*
X133232000Y-85462331D02*
X133222196Y-85549341D01*
X132332345Y-85007362D02*
X132297268Y-84985321D01*
X133906009Y-84957196D02*
X133823362Y-84928276D01*
X135689000Y-84967000D02*
X133993019Y-84967000D01*
X132706009Y-85843547D02*
X132623362Y-85814627D01*
X132793019Y-85853350D02*
X132706009Y-85843547D01*
X132487308Y-85706128D02*
X132440723Y-85631988D01*
X133301654Y-84121011D02*
X133272361Y-84150304D01*
X132397361Y-85110834D02*
X132383679Y-85071732D01*
X132411803Y-85549341D02*
X132402000Y-85462331D01*
X133232000Y-84265650D02*
X133232000Y-85462331D01*
X133250320Y-84185381D02*
X133236638Y-84224483D01*
X132361638Y-85036655D02*
X132332345Y-85007362D01*
X133687308Y-84819777D02*
X133640723Y-84745637D01*
X132623362Y-85814627D02*
X132549222Y-85768042D01*
X133597361Y-84224483D02*
X133583679Y-84185381D01*
X133602000Y-84265650D02*
X133597361Y-84224483D01*
X133497268Y-84098970D02*
X133458166Y-84085288D01*
X132402000Y-85462331D02*
X132402000Y-85152000D01*
X133611803Y-84662990D02*
X133602000Y-84575980D01*
X133272361Y-84150304D02*
X133250320Y-84185381D01*
X133010637Y-85814627D02*
X132927990Y-85843547D01*
X133458166Y-84085288D02*
X133417000Y-84080650D01*
X133640723Y-84745637D02*
X133611803Y-84662990D01*
X127694730Y-84850000D02*
X127440000Y-84850000D01*
G04 #@! TO.N,/ETH Switch/ETH0_C+*
X133872361Y-84667345D02*
X133850320Y-84632268D01*
X133002000Y-85438350D02*
X132997361Y-85479517D01*
X132546691Y-84884223D02*
X132484777Y-84822309D01*
X133087308Y-83997872D02*
X133040723Y-84072012D01*
X133793276Y-84072012D02*
X133746691Y-83997872D01*
X132410637Y-84775724D02*
X132327990Y-84746804D01*
X133040723Y-84072012D02*
X133011803Y-84154659D01*
X133684777Y-83935958D02*
X133610637Y-83889373D01*
X133832000Y-84241669D02*
X133822196Y-84154659D01*
X132997361Y-85479517D02*
X132983679Y-85518619D01*
X134017000Y-84737000D02*
X133975833Y-84732361D01*
X133011803Y-84154659D02*
X133002000Y-84241669D01*
X132327990Y-84746804D02*
X132240980Y-84737000D01*
X136590000Y-83836000D02*
X135689000Y-84737000D01*
X132983679Y-85518619D02*
X132961638Y-85553696D01*
X133746691Y-83997872D02*
X133684777Y-83935958D01*
X133901654Y-84696638D02*
X133872361Y-84667345D01*
X132932345Y-85582989D02*
X132897268Y-85605030D01*
X132240980Y-84737000D02*
X127907000Y-84737000D01*
X132817000Y-85623350D02*
X132775833Y-85618712D01*
X132622196Y-85041010D02*
X132593276Y-84958363D01*
X133836638Y-84593166D02*
X133832000Y-84552000D01*
X133975833Y-84732361D02*
X133936731Y-84718679D01*
X135689000Y-84737000D02*
X134017000Y-84737000D01*
X133610637Y-83889373D02*
X133527990Y-83860453D01*
X132736731Y-85605030D02*
X132701654Y-85582989D01*
X132897268Y-85605030D02*
X132858166Y-85618712D01*
X133850320Y-84632268D02*
X133836638Y-84593166D01*
X132632000Y-85128020D02*
X132622196Y-85041010D01*
X127907000Y-84737000D02*
X127440000Y-84270000D01*
X133223362Y-83889373D02*
X133149222Y-83935958D01*
X133822196Y-84154659D02*
X133793276Y-84072012D01*
X133527990Y-83860453D02*
X133440980Y-83850650D01*
X133936731Y-84718679D02*
X133901654Y-84696638D01*
X132636638Y-85479517D02*
X132632000Y-85438350D01*
X133306009Y-83860453D02*
X133223362Y-83889373D01*
X133393019Y-83850650D02*
X133306009Y-83860453D01*
X132650320Y-85518619D02*
X132636638Y-85479517D01*
X132672361Y-85553696D02*
X132650320Y-85518619D01*
X133149222Y-83935958D02*
X133087308Y-83997872D01*
X133002000Y-84241669D02*
X133002000Y-85438350D01*
X132961638Y-85553696D02*
X132932345Y-85582989D01*
X133832000Y-84552000D02*
X133832000Y-84241669D01*
X133440980Y-83850650D02*
X133393019Y-83850650D01*
X132593276Y-84958363D02*
X132546691Y-84884223D01*
X132858166Y-85618712D02*
X132817000Y-85623350D01*
X132632000Y-85438350D02*
X132632000Y-85128020D01*
X132484777Y-84822309D02*
X132410637Y-84775724D01*
X132701654Y-85582989D02*
X132672361Y-85553696D01*
X132775833Y-85618712D02*
X132736731Y-85605030D01*
G04 #@! TO.N,/ETH Switch/ETH0_B+*
X134006320Y-79918309D02*
X133992638Y-79957411D01*
X132349019Y-81992422D02*
X132262009Y-81982619D01*
X133988000Y-79998578D02*
X133988000Y-81601403D01*
X134579362Y-80864276D02*
X134505222Y-80817691D01*
X133596980Y-81992422D02*
X133549019Y-81992422D01*
X132749276Y-81771060D02*
X132702691Y-81845200D01*
X134358000Y-80511980D02*
X134358000Y-79998578D01*
X133153361Y-79957411D02*
X133139679Y-79918309D01*
X134214166Y-79818216D02*
X134173000Y-79813578D01*
X132043308Y-81845200D02*
X131996723Y-81771060D01*
X132828361Y-79883232D02*
X132806320Y-79918309D01*
X133196723Y-81771060D02*
X133167803Y-81688413D01*
X131773000Y-80903000D02*
X128487730Y-80903000D01*
X133088345Y-79853939D02*
X133053268Y-79831898D01*
X132483990Y-81982619D02*
X132396980Y-81992422D01*
X134131833Y-79818216D02*
X134092731Y-79831898D01*
X131917638Y-80972655D02*
X131888345Y-80943362D01*
X134505222Y-80817691D02*
X134443308Y-80755777D01*
X133992638Y-79957411D02*
X133988000Y-79998578D01*
X131939679Y-81007732D02*
X131917638Y-80972655D01*
X134339679Y-79918309D02*
X134317638Y-79883232D01*
X133139679Y-79918309D02*
X133117638Y-79883232D01*
X132788000Y-81601403D02*
X132778196Y-81688413D01*
X134288345Y-79853939D02*
X134253268Y-79831898D01*
X134443308Y-80755777D02*
X134396723Y-80681637D01*
X134749019Y-80903000D02*
X134662009Y-80893196D01*
X131996723Y-81771060D02*
X131967803Y-81688413D01*
X133902691Y-81845200D02*
X133840777Y-81907114D01*
X133988000Y-81601403D02*
X133978196Y-81688413D01*
X133840777Y-81907114D02*
X133766637Y-81953699D01*
X132179362Y-81953699D02*
X132105222Y-81907114D01*
X134367803Y-80598990D02*
X134358000Y-80511980D01*
X134396723Y-80681637D02*
X134367803Y-80598990D01*
X133305222Y-81907114D02*
X133243308Y-81845200D01*
X128487730Y-80903000D02*
X128264730Y-80680000D01*
X132788000Y-79998578D02*
X132788000Y-81601403D01*
X131888345Y-80943362D02*
X131853268Y-80921321D01*
X131814166Y-80907639D02*
X131773000Y-80903000D01*
X132566637Y-81953699D02*
X132483990Y-81982619D01*
X132105222Y-81907114D02*
X132043308Y-81845200D01*
X134353361Y-79957411D02*
X134339679Y-79918309D01*
X134317638Y-79883232D02*
X134288345Y-79853939D01*
X133117638Y-79883232D02*
X133088345Y-79853939D01*
X134092731Y-79831898D02*
X134057654Y-79853939D01*
X132931833Y-79818216D02*
X132892731Y-79831898D01*
X133549019Y-81992422D02*
X133462009Y-81982619D01*
X132857654Y-79853939D02*
X132828361Y-79883232D01*
X133158000Y-79998578D02*
X133153361Y-79957411D01*
X133462009Y-81982619D02*
X133379362Y-81953699D01*
X128264730Y-80680000D02*
X128010000Y-80680000D01*
X133014166Y-79818216D02*
X132973000Y-79813578D01*
X134057654Y-79853939D02*
X134028361Y-79883232D01*
X132806320Y-79918309D02*
X132792638Y-79957411D01*
X133243308Y-81845200D02*
X133196723Y-81771060D01*
X131958000Y-81601403D02*
X131958000Y-81088000D01*
X134173000Y-79813578D02*
X134131833Y-79818216D01*
X132702691Y-81845200D02*
X132640777Y-81907114D01*
X133978196Y-81688413D02*
X133949276Y-81771060D01*
X136590000Y-81804000D02*
X135689000Y-80903000D01*
X132396980Y-81992422D02*
X132349019Y-81992422D01*
X132262009Y-81982619D02*
X132179362Y-81953699D01*
X134253268Y-79831898D02*
X134214166Y-79818216D01*
X134662009Y-80893196D02*
X134579362Y-80864276D01*
X133949276Y-81771060D02*
X133902691Y-81845200D01*
X132973000Y-79813578D02*
X132931833Y-79818216D01*
X132640777Y-81907114D02*
X132566637Y-81953699D01*
X133158000Y-81601403D02*
X133158000Y-79998578D01*
X132778196Y-81688413D02*
X132749276Y-81771060D01*
X134028361Y-79883232D02*
X134006320Y-79918309D01*
X135689000Y-80903000D02*
X134749019Y-80903000D01*
X134358000Y-79998578D02*
X134353361Y-79957411D01*
X132792638Y-79957411D02*
X132788000Y-79998578D01*
X133053268Y-79831898D02*
X133014166Y-79818216D01*
X131953361Y-81046834D02*
X131939679Y-81007732D01*
X133766637Y-81953699D02*
X133683990Y-81982619D01*
X133167803Y-81688413D02*
X133158000Y-81601403D01*
X131853268Y-80921321D02*
X131814166Y-80907639D01*
X133683990Y-81982619D02*
X133596980Y-81992422D01*
X131958000Y-81088000D02*
X131953361Y-81046834D01*
X132892731Y-79831898D02*
X132857654Y-79853939D01*
X131967803Y-81688413D02*
X131958000Y-81601403D01*
X133379362Y-81953699D02*
X133305222Y-81907114D01*
G04 #@! TO.N,/ETH Switch/ETH0_B-*
X133392638Y-81618589D02*
X133388000Y-81577422D01*
X133388000Y-79974597D02*
X133378196Y-79887587D01*
X134440777Y-79668886D02*
X134366637Y-79622301D01*
X133240777Y-79668886D02*
X133166637Y-79622301D01*
X132517638Y-81692768D02*
X132488345Y-81722061D01*
X132596723Y-79804940D02*
X132567803Y-79887587D01*
X132558000Y-79974597D02*
X132558000Y-81577422D01*
X132949019Y-79583578D02*
X132862009Y-79593381D01*
X133349276Y-79804940D02*
X133302691Y-79730800D01*
X132257654Y-81722061D02*
X132228361Y-81692768D01*
X136590000Y-79772000D02*
X135689000Y-80673000D01*
X128583000Y-80673000D02*
X128010000Y-80100000D01*
X131796980Y-80673000D02*
X128583000Y-80673000D01*
X132558000Y-81577422D02*
X132553361Y-81618589D01*
X132040777Y-80758309D02*
X131966637Y-80711724D01*
X133614166Y-81757784D02*
X133573000Y-81762422D01*
X134502691Y-79730800D02*
X134440777Y-79668886D01*
X134606320Y-80568268D02*
X134592638Y-80529166D01*
X133653268Y-81744102D02*
X133614166Y-81757784D01*
X133753361Y-81618589D02*
X133739679Y-81657691D01*
X133905222Y-79668886D02*
X133843308Y-79730800D01*
X133758000Y-81577422D02*
X133753361Y-81618589D01*
X134549276Y-79804940D02*
X134502691Y-79730800D01*
X132373000Y-81762422D02*
X132331833Y-81757784D01*
X133492731Y-81744102D02*
X133457654Y-81722061D01*
X133531833Y-81757784D02*
X133492731Y-81744102D01*
X134692731Y-80654679D02*
X134657654Y-80632638D01*
X132488345Y-81722061D02*
X132453268Y-81744102D01*
X132188000Y-81064020D02*
X132178196Y-80977010D01*
X134628361Y-80603345D02*
X134606320Y-80568268D01*
X132149276Y-80894363D02*
X132102691Y-80820223D01*
X132192638Y-81618589D02*
X132188000Y-81577422D01*
X134773000Y-80673000D02*
X134731833Y-80668361D01*
X133378196Y-79887587D02*
X133349276Y-79804940D01*
X132292731Y-81744102D02*
X132257654Y-81722061D01*
X133166637Y-79622301D02*
X133083990Y-79593381D01*
X134196980Y-79583578D02*
X134149019Y-79583578D01*
X133979362Y-79622301D02*
X133905222Y-79668886D01*
X133767803Y-79887587D02*
X133758000Y-79974597D01*
X132862009Y-79593381D02*
X132779362Y-79622301D01*
X132206320Y-81657691D02*
X132192638Y-81618589D01*
X133406320Y-81657691D02*
X133392638Y-81618589D01*
X134657654Y-80632638D02*
X134628361Y-80603345D01*
X133796723Y-79804940D02*
X133767803Y-79887587D01*
X133083990Y-79593381D02*
X132996980Y-79583578D01*
X133388000Y-81577422D02*
X133388000Y-79974597D01*
X133302691Y-79730800D02*
X133240777Y-79668886D01*
X134588000Y-79974597D02*
X134578196Y-79887587D01*
X131966637Y-80711724D02*
X131883990Y-80682804D01*
X134062009Y-79593381D02*
X133979362Y-79622301D01*
X133428361Y-81692768D02*
X133406320Y-81657691D01*
X134283990Y-79593381D02*
X134196980Y-79583578D01*
X134149019Y-79583578D02*
X134062009Y-79593381D01*
X132228361Y-81692768D02*
X132206320Y-81657691D01*
X133758000Y-79974597D02*
X133758000Y-81577422D01*
X132996980Y-79583578D02*
X132949019Y-79583578D01*
X133717638Y-81692768D02*
X133688345Y-81722061D01*
X133573000Y-81762422D02*
X133531833Y-81757784D01*
X134366637Y-79622301D02*
X134283990Y-79593381D01*
X134588000Y-80488000D02*
X134588000Y-79974597D01*
X131883990Y-80682804D02*
X131796980Y-80673000D01*
X132178196Y-80977010D02*
X132149276Y-80894363D01*
X133843308Y-79730800D02*
X133796723Y-79804940D01*
X132331833Y-81757784D02*
X132292731Y-81744102D01*
X134731833Y-80668361D02*
X134692731Y-80654679D01*
X132414166Y-81757784D02*
X132373000Y-81762422D01*
X132553361Y-81618589D02*
X132539679Y-81657691D01*
X132188000Y-81577422D02*
X132188000Y-81064020D01*
X133688345Y-81722061D02*
X133653268Y-81744102D01*
X132453268Y-81744102D02*
X132414166Y-81757784D01*
X133739679Y-81657691D02*
X133717638Y-81692768D01*
X132102691Y-80820223D02*
X132040777Y-80758309D01*
X132705222Y-79668886D02*
X132643308Y-79730800D01*
X132567803Y-79887587D02*
X132558000Y-79974597D01*
X133457654Y-81722061D02*
X133428361Y-81692768D01*
X134578196Y-79887587D02*
X134549276Y-79804940D01*
X134592638Y-80529166D02*
X134588000Y-80488000D01*
X132539679Y-81657691D02*
X132517638Y-81692768D01*
X135689000Y-80673000D02*
X134773000Y-80673000D01*
X132779362Y-79622301D02*
X132705222Y-79668886D01*
X132643308Y-79730800D02*
X132596723Y-79804940D01*
G04 #@! TO.N,/ETH Switch/ETH0_D+*
X138229000Y-85983000D02*
X139130000Y-86884000D01*
X137785000Y-86177636D02*
X137979636Y-85983000D01*
X137347636Y-90025000D02*
X137785000Y-89587636D01*
X134995000Y-90025000D02*
X137347636Y-90025000D01*
X131560000Y-86590000D02*
X134995000Y-90025000D01*
X137785000Y-89587636D02*
X137785000Y-86177636D01*
X137979636Y-85983000D02*
X138229000Y-85983000D01*
G04 #@! TO.N,/ETH Switch/ETH0_D-*
X138229000Y-85753000D02*
X139130000Y-84852000D01*
X137252364Y-89795000D02*
X137555000Y-89492364D01*
X137555000Y-86082364D02*
X137884364Y-85753000D01*
X137555000Y-89492364D02*
X137555000Y-86082364D01*
X132140000Y-86844730D02*
X135090270Y-89795000D01*
X137884364Y-85753000D02*
X138229000Y-85753000D01*
X135090270Y-89795000D02*
X137252364Y-89795000D01*
X132140000Y-86590000D02*
X132140000Y-86844730D01*
G04 #@! TO.N,/ETH Switch/ETH0_A-*
X129420345Y-74647759D02*
X129385268Y-74625718D01*
X129449638Y-74677052D02*
X129420345Y-74647759D01*
X128290000Y-75540000D02*
X128285361Y-75498834D01*
X129346166Y-74612036D02*
X129305000Y-74607398D01*
X129711362Y-75316276D02*
X129637222Y-75269691D01*
X128185268Y-75373321D02*
X128146166Y-75359639D01*
X128249638Y-75424655D02*
X128220345Y-75395362D01*
X129490000Y-74792398D02*
X129485361Y-74751231D01*
X129138320Y-74712129D02*
X129124638Y-74751231D01*
X128594009Y-76092799D02*
X128511362Y-76063879D01*
X137595000Y-77367636D02*
X137052364Y-76825000D01*
X138229000Y-79887000D02*
X137884364Y-79887000D01*
X125215000Y-75355000D02*
X125040000Y-75530000D01*
X129224731Y-74625718D02*
X129189654Y-74647759D01*
X129485361Y-74751231D02*
X129471679Y-74712129D01*
X128437222Y-76017294D02*
X128375308Y-75955380D01*
X129471679Y-74712129D02*
X129449638Y-74677052D01*
X128898637Y-76063879D02*
X128815990Y-76092799D01*
X129575308Y-75207777D02*
X129528723Y-75133637D01*
X137595000Y-79597636D02*
X137595000Y-77367636D01*
X129637222Y-75269691D02*
X129575308Y-75207777D01*
X137884364Y-79887000D02*
X137595000Y-79597636D01*
X128815990Y-76092799D02*
X128728980Y-76102602D01*
X129124638Y-74751231D02*
X129120000Y-74792398D01*
X128105000Y-75355000D02*
X125215000Y-75355000D01*
X128146166Y-75359639D02*
X128105000Y-75355000D01*
X128728980Y-76102602D02*
X128681019Y-76102602D01*
X132122364Y-76825000D02*
X130652364Y-75355000D01*
X128375308Y-75955380D02*
X128328723Y-75881240D01*
X129305000Y-74607398D02*
X129263833Y-74612036D01*
X129120000Y-75711583D02*
X129110196Y-75798593D01*
X129160361Y-74677052D02*
X129138320Y-74712129D01*
X139130000Y-80788000D02*
X138229000Y-79887000D01*
X129528723Y-75133637D02*
X129499803Y-75050990D01*
X129385268Y-74625718D02*
X129346166Y-74612036D01*
X129490000Y-74963980D02*
X129490000Y-74792398D01*
X128972777Y-76017294D02*
X128898637Y-76063879D01*
X129110196Y-75798593D02*
X129081276Y-75881240D01*
X137052364Y-76825000D02*
X132122364Y-76825000D01*
X128681019Y-76102602D02*
X128594009Y-76092799D01*
X129120000Y-74792398D02*
X129120000Y-75711583D01*
X128220345Y-75395362D02*
X128185268Y-75373321D01*
X129081276Y-75881240D02*
X129034691Y-75955380D01*
X130652364Y-75355000D02*
X129881019Y-75355000D01*
X128290000Y-75711583D02*
X128290000Y-75540000D01*
X128328723Y-75881240D02*
X128299803Y-75798593D01*
X128299803Y-75798593D02*
X128290000Y-75711583D01*
X129034691Y-75955380D02*
X128972777Y-76017294D01*
X129794009Y-75345196D02*
X129711362Y-75316276D01*
X129189654Y-74647759D02*
X129160361Y-74677052D01*
X129263833Y-74612036D02*
X129224731Y-74625718D01*
X129499803Y-75050990D02*
X129490000Y-74963980D01*
X128511362Y-76063879D02*
X128437222Y-76017294D01*
X128271679Y-75459732D02*
X128249638Y-75424655D01*
X128285361Y-75498834D02*
X128271679Y-75459732D01*
X129881019Y-75355000D02*
X129794009Y-75345196D01*
G04 #@! TO.N,/ETH Switch/ETH0_A+*
X129498637Y-74416121D02*
X129415990Y-74387201D01*
X128510196Y-75429010D02*
X128481276Y-75346363D01*
X129037222Y-74462706D02*
X128975308Y-74524620D01*
X128520000Y-75516020D02*
X128510196Y-75429010D01*
X137979636Y-79657000D02*
X137825000Y-79502364D01*
X129738320Y-75020268D02*
X129724638Y-74981166D01*
X128560361Y-75802948D02*
X128538320Y-75767871D01*
X139130000Y-78756000D02*
X138229000Y-79657000D01*
X128624731Y-75854282D02*
X128589654Y-75832241D01*
X129634691Y-74524620D02*
X129572777Y-74462706D01*
X125215000Y-75125000D02*
X125040000Y-74950000D01*
X128434691Y-75272223D02*
X128372777Y-75210309D01*
X128746166Y-75867964D02*
X128705000Y-75872602D01*
X129328980Y-74377398D02*
X129281019Y-74377398D01*
X129720000Y-74940000D02*
X129720000Y-74768417D01*
X128663833Y-75867964D02*
X128624731Y-75854282D01*
X129194009Y-74387201D02*
X129111362Y-74416121D01*
X137147636Y-76595000D02*
X132217636Y-76595000D01*
X138229000Y-79657000D02*
X137979636Y-79657000D01*
X129572777Y-74462706D02*
X129498637Y-74416121D01*
X128849638Y-75802948D02*
X128820345Y-75832241D01*
X128890000Y-74768417D02*
X128890000Y-75687602D01*
X129760361Y-75055345D02*
X129738320Y-75020268D01*
X128890000Y-75687602D02*
X128885361Y-75728769D01*
X128885361Y-75728769D02*
X128871679Y-75767871D01*
X128928723Y-74598760D02*
X128899803Y-74681407D01*
X128705000Y-75872602D02*
X128663833Y-75867964D01*
X129863833Y-75120361D02*
X129824731Y-75106679D01*
X129905000Y-75125000D02*
X129863833Y-75120361D01*
X129720000Y-74768417D02*
X129710196Y-74681407D01*
X128871679Y-75767871D02*
X128849638Y-75802948D01*
X132217636Y-76595000D02*
X130747636Y-75125000D01*
X128298637Y-75163724D02*
X128215990Y-75134804D01*
X128975308Y-74524620D02*
X128928723Y-74598760D01*
X129681276Y-74598760D02*
X129634691Y-74524620D01*
X128372777Y-75210309D02*
X128298637Y-75163724D01*
X128538320Y-75767871D02*
X128524638Y-75728769D01*
X128520000Y-75687602D02*
X128520000Y-75516020D01*
X128589654Y-75832241D02*
X128560361Y-75802948D01*
X129710196Y-74681407D02*
X129681276Y-74598760D01*
X129724638Y-74981166D02*
X129720000Y-74940000D01*
X128524638Y-75728769D02*
X128520000Y-75687602D01*
X129824731Y-75106679D02*
X129789654Y-75084638D01*
X137825000Y-77272364D02*
X137147636Y-76595000D01*
X128481276Y-75346363D02*
X128434691Y-75272223D01*
X137825000Y-79502364D02*
X137825000Y-77272364D01*
X128215990Y-75134804D02*
X128128980Y-75125000D01*
X129111362Y-74416121D02*
X129037222Y-74462706D01*
X129281019Y-74377398D02*
X129194009Y-74387201D01*
X128785268Y-75854282D02*
X128746166Y-75867964D01*
X128899803Y-74681407D02*
X128890000Y-74768417D01*
X128128980Y-75125000D02*
X125215000Y-75125000D01*
X129415990Y-74387201D02*
X129328980Y-74377398D01*
X128820345Y-75832241D02*
X128785268Y-75854282D01*
X129789654Y-75084638D02*
X129760361Y-75055345D01*
X130747636Y-75125000D02*
X129905000Y-75125000D01*
D31*
G04 #@! TO.N,/ETH Switch/ETH0_LED0*
X143020000Y-80614000D02*
X141670000Y-79264000D01*
X143020000Y-91600000D02*
X143020000Y-80614000D01*
D32*
G04 #@! TO.N,/ETH Switch/ETH1_C-*
X143700059Y-73926905D02*
X143725268Y-73942745D01*
X144285884Y-73353574D02*
X144361983Y-73345000D01*
X152214364Y-80703000D02*
X152339000Y-80703000D01*
X143782956Y-73955912D02*
X143887044Y-73955912D01*
X143969940Y-73926905D02*
X143990993Y-73905852D01*
X136665000Y-73345000D02*
X142635000Y-73345000D01*
X144213602Y-73378866D02*
X144285884Y-73353574D01*
X143124009Y-72493892D02*
X143211019Y-72484088D01*
X144053866Y-73538602D02*
X144094609Y-73473760D01*
X143650000Y-72875108D02*
X143650000Y-73822956D01*
X143611276Y-72705451D02*
X143640196Y-72788098D01*
X143753370Y-73952578D02*
X143782956Y-73955912D01*
X144020000Y-73822956D02*
X144020000Y-73686983D01*
X143564691Y-72631311D02*
X143611276Y-72705451D01*
X142820000Y-72875108D02*
X142829803Y-72788098D01*
X144028574Y-73610884D02*
X144053866Y-73538602D01*
X142967222Y-72569397D02*
X143041362Y-72522812D01*
X144361983Y-73345000D02*
X144727636Y-73345000D01*
X146965000Y-75582364D02*
X146965000Y-80402364D01*
X142715268Y-73326680D02*
X142750345Y-73304639D01*
X143041362Y-72522812D02*
X143124009Y-72493892D01*
X142801679Y-73240269D02*
X142815361Y-73201167D01*
X144094609Y-73473760D02*
X144148760Y-73419609D01*
X143653333Y-73852541D02*
X143663166Y-73880643D01*
X142815361Y-73201167D02*
X142820000Y-73160000D01*
X143650000Y-73822956D02*
X143653333Y-73852541D01*
X144148760Y-73419609D02*
X144213602Y-73378866D01*
X142858723Y-72705451D02*
X142905308Y-72631311D01*
X143725268Y-73942745D02*
X143753370Y-73952578D01*
X144020000Y-73686983D02*
X144028574Y-73610884D01*
X143502777Y-72569397D02*
X143564691Y-72631311D01*
X144006833Y-73880643D02*
X144016666Y-73852541D01*
X143679006Y-73905852D02*
X143700059Y-73926905D01*
X142905308Y-72631311D02*
X142967222Y-72569397D01*
X142820000Y-73160000D02*
X142820000Y-72875108D01*
X148477636Y-81915000D02*
X151002364Y-81915000D01*
X152339000Y-80703000D02*
X153240000Y-79802000D01*
X142750345Y-73304639D02*
X142779638Y-73275346D01*
X144016666Y-73852541D02*
X144020000Y-73822956D01*
X143887044Y-73955912D02*
X143916629Y-73952578D01*
X142829803Y-72788098D02*
X142858723Y-72705451D01*
X136490000Y-73170000D02*
X136665000Y-73345000D01*
X143916629Y-73952578D02*
X143944731Y-73942745D01*
X143663166Y-73880643D02*
X143679006Y-73905852D01*
X143211019Y-72484088D02*
X143258980Y-72484088D01*
X143258980Y-72484088D02*
X143345990Y-72493892D01*
X143428637Y-72522812D02*
X143502777Y-72569397D01*
X142676166Y-73340362D02*
X142715268Y-73326680D01*
X142779638Y-73275346D02*
X142801679Y-73240269D01*
X146965000Y-80402364D02*
X148477636Y-81915000D01*
X142635000Y-73345000D02*
X142676166Y-73340362D01*
X151002364Y-81915000D02*
X152214364Y-80703000D01*
X143990993Y-73905852D02*
X144006833Y-73880643D01*
X143640196Y-72788098D02*
X143650000Y-72875108D01*
X144727636Y-73345000D02*
X146965000Y-75582364D01*
X143345990Y-72493892D02*
X143428637Y-72522812D01*
X143944731Y-73942745D02*
X143969940Y-73926905D01*
G04 #@! TO.N,/ETH Switch/ETH1_C+*
X144382956Y-73575000D02*
X144632364Y-73575000D01*
X142745990Y-73565197D02*
X142828637Y-73536277D01*
X148382364Y-82145000D02*
X151097636Y-82145000D01*
X143350345Y-72754450D02*
X143379638Y-72783743D01*
X143420000Y-73843928D02*
X143428574Y-73920027D01*
X143761983Y-74185912D02*
X143908016Y-74185912D01*
X144263166Y-73650268D02*
X144279006Y-73625059D01*
X143040196Y-73270991D02*
X143050000Y-73183981D01*
X143613602Y-74152045D02*
X143685884Y-74177337D01*
X142828637Y-73536277D02*
X142902777Y-73489692D01*
X143119654Y-72754450D02*
X143154731Y-72732409D01*
X142658980Y-73575000D02*
X142745990Y-73565197D01*
X143685884Y-74177337D02*
X143761983Y-74185912D01*
X143494609Y-74057151D02*
X143548760Y-74111302D01*
X142964691Y-73427778D02*
X143011276Y-73353638D01*
X143154731Y-72732409D02*
X143193833Y-72718727D01*
X143235000Y-72714088D02*
X143276166Y-72718727D01*
X143401679Y-72818820D02*
X143415361Y-72857922D01*
X143193833Y-72718727D02*
X143235000Y-72714088D01*
X144250000Y-73707956D02*
X144253333Y-73678370D01*
X143276166Y-72718727D02*
X143315268Y-72732409D01*
X143011276Y-73353638D02*
X143040196Y-73270991D01*
X144250000Y-73843928D02*
X144250000Y-73707956D01*
X143453866Y-73992309D02*
X143494609Y-74057151D01*
X143090361Y-72783743D02*
X143119654Y-72754450D01*
X152339000Y-80933000D02*
X153240000Y-81834000D01*
X144056397Y-74152045D02*
X144121239Y-74111302D01*
X143415361Y-72857922D02*
X143420000Y-72899088D01*
X143428574Y-73920027D02*
X143453866Y-73992309D01*
X144241425Y-73920027D02*
X144250000Y-73843928D01*
X136490000Y-73750000D02*
X136665000Y-73575000D01*
X144325268Y-73588166D02*
X144353370Y-73578333D01*
X143050000Y-72899088D02*
X143054638Y-72857922D01*
X144121239Y-74111302D02*
X144175390Y-74057151D01*
X136665000Y-73575000D02*
X142658980Y-73575000D01*
X152309636Y-80933000D02*
X152339000Y-80933000D01*
X144353370Y-73578333D02*
X144382956Y-73575000D01*
X144216133Y-73992309D02*
X144241425Y-73920027D01*
X143315268Y-72732409D02*
X143350345Y-72754450D01*
X143984115Y-74177337D02*
X144056397Y-74152045D01*
X143050000Y-73183981D02*
X143050000Y-72899088D01*
X143068320Y-72818820D02*
X143090361Y-72783743D01*
X151097636Y-82145000D02*
X152309636Y-80933000D01*
X144175390Y-74057151D02*
X144216133Y-73992309D01*
X143054638Y-72857922D02*
X143068320Y-72818820D01*
X143379638Y-72783743D02*
X143401679Y-72818820D01*
X146735000Y-80497636D02*
X148382364Y-82145000D01*
X143908016Y-74185912D02*
X143984115Y-74177337D01*
X142902777Y-73489692D02*
X142964691Y-73427778D01*
X143420000Y-72899088D02*
X143420000Y-73843928D01*
X144632364Y-73575000D02*
X146735000Y-75677636D01*
X146735000Y-75677636D02*
X146735000Y-80497636D01*
X144300059Y-73604006D02*
X144325268Y-73588166D01*
X144279006Y-73625059D02*
X144300059Y-73604006D01*
X143548760Y-74111302D02*
X143613602Y-74152045D01*
X144253333Y-73678370D02*
X144263166Y-73650268D01*
G04 #@! TO.N,/ETH Switch/ETH1_B+*
X145545000Y-82162364D02*
X146147636Y-82765000D01*
X134375000Y-74585000D02*
X136702364Y-74585000D01*
X152339000Y-84767000D02*
X153240000Y-83866000D01*
X145545000Y-76662364D02*
X145545000Y-82162364D01*
X136702364Y-74585000D02*
X137272364Y-74015000D01*
X137272364Y-74015000D02*
X142897636Y-74015000D01*
X146147636Y-82765000D02*
X150307636Y-82765000D01*
X152309636Y-84767000D02*
X152339000Y-84767000D01*
X134200000Y-74410000D02*
X134375000Y-74585000D01*
X142897636Y-74015000D02*
X145545000Y-76662364D01*
X150307636Y-82765000D02*
X152309636Y-84767000D01*
G04 #@! TO.N,/ETH Switch/ETH1_B-*
X137367636Y-74245000D02*
X142802364Y-74245000D01*
X136797636Y-74815000D02*
X137367636Y-74245000D01*
X152339000Y-84997000D02*
X153240000Y-85898000D01*
X145315000Y-82257636D02*
X146052364Y-82995000D01*
X146052364Y-82995000D02*
X150212364Y-82995000D01*
X145315000Y-76757636D02*
X145315000Y-82257636D01*
X152214364Y-84997000D02*
X152339000Y-84997000D01*
X134375000Y-74815000D02*
X136797636Y-74815000D01*
X134200000Y-74990000D02*
X134375000Y-74815000D01*
X150212364Y-82995000D02*
X152214364Y-84997000D01*
X142802364Y-74245000D02*
X145315000Y-76757636D01*
G04 #@! TO.N,/ETH Switch/ETH1_D+*
X149615000Y-75242364D02*
X149615000Y-79332364D01*
X149857636Y-79575000D02*
X150190000Y-79575000D01*
X149615000Y-79332364D02*
X149857636Y-79575000D01*
X150700000Y-79065000D02*
X150190000Y-79575000D01*
X149345000Y-74972364D02*
X149615000Y-75242364D01*
X149520000Y-72680000D02*
X149345000Y-72855000D01*
X150700000Y-78786000D02*
X150700000Y-79065000D01*
X149345000Y-72855000D02*
X149345000Y-74972364D01*
G04 #@! TO.N,/ETH Switch/ETH1_D-*
X150700000Y-80818000D02*
X150700000Y-80315000D01*
X149385000Y-75337636D02*
X149385000Y-79427636D01*
X149762364Y-79805000D02*
X150190000Y-79805000D01*
X148940000Y-72680000D02*
X149115000Y-72855000D01*
X149385000Y-79427636D02*
X149762364Y-79805000D01*
X149115000Y-75067636D02*
X149385000Y-75337636D01*
X149115000Y-72855000D02*
X149115000Y-75067636D01*
X150700000Y-80315000D02*
X150190000Y-79805000D01*
G04 #@! TO.N,/ETH Switch/ETH1_A-*
X149605636Y-85783000D02*
X149799000Y-85783000D01*
X133165000Y-75185000D02*
X133165000Y-75552364D01*
X147627636Y-83805000D02*
X149605636Y-85783000D01*
X144005000Y-76562364D02*
X144005000Y-82832364D01*
X142617636Y-75175000D02*
X144005000Y-76562364D01*
X149799000Y-85783000D02*
X150700000Y-84882000D01*
X133165000Y-75552364D02*
X133237636Y-75625000D01*
X138092364Y-75175000D02*
X142617636Y-75175000D01*
X133340000Y-75010000D02*
X133165000Y-75185000D01*
X133237636Y-75625000D02*
X137642364Y-75625000D01*
X144005000Y-82832364D02*
X144977636Y-83805000D01*
X144977636Y-83805000D02*
X147627636Y-83805000D01*
X137642364Y-75625000D02*
X138092364Y-75175000D01*
G04 #@! TO.N,/ETH Switch/ETH1_A+*
X137737636Y-75855000D02*
X138187636Y-75405000D01*
X143775000Y-82927636D02*
X144882364Y-84035000D01*
X132760000Y-75010000D02*
X132935000Y-75185000D01*
X132935000Y-75647636D02*
X133142364Y-75855000D01*
X138187636Y-75405000D02*
X142522364Y-75405000D01*
X143775000Y-76657636D02*
X143775000Y-82927636D01*
X142522364Y-75405000D02*
X143775000Y-76657636D01*
X132935000Y-75185000D02*
X132935000Y-75647636D01*
X147532364Y-84035000D02*
X149510364Y-86013000D01*
X149510364Y-86013000D02*
X149799000Y-86013000D01*
X133142364Y-75855000D02*
X137737636Y-75855000D01*
X149799000Y-86013000D02*
X150700000Y-86914000D01*
X144882364Y-84035000D02*
X147532364Y-84035000D01*
D31*
G04 #@! TO.N,/ETH Switch/ETH1_LED1*
X144900001Y-71869999D02*
X144900001Y-59307999D01*
X144140000Y-72630000D02*
X144900001Y-71869999D01*
X139652998Y-55730000D02*
X134122998Y-61260000D01*
X134122998Y-61260000D02*
X131850000Y-61260000D01*
X144900001Y-59307999D02*
X141322002Y-55730000D01*
X141322002Y-55730000D02*
X139652998Y-55730000D01*
G04 #@! TO.N,/ETH Switch/ETH1_LED0*
X157000000Y-89220000D02*
X154790000Y-91430000D01*
X138630010Y-55479990D02*
X141999990Y-55479990D01*
X131449999Y-61609999D02*
X131449999Y-61067999D01*
X146040000Y-90630000D02*
X146040000Y-88526000D01*
X146040000Y-88526000D02*
X148160000Y-86406000D01*
X135410000Y-59380000D02*
X135410000Y-58700000D01*
X134269999Y-60520001D02*
X135410000Y-59380000D01*
X157000000Y-77080000D02*
X157000000Y-89220000D01*
X131783800Y-61943800D02*
X131449999Y-61609999D01*
X145510000Y-58990000D02*
X145510000Y-62860000D01*
X145510000Y-62860000D02*
X145510000Y-64702002D01*
X141999990Y-55479990D02*
X145510000Y-58990000D01*
X145510000Y-64702002D02*
X152320000Y-71512002D01*
X131997997Y-60520001D02*
X134269999Y-60520001D01*
X146840000Y-91430000D02*
X146040000Y-90630000D01*
X152320000Y-72400000D02*
X157000000Y-77080000D01*
X154790000Y-91430000D02*
X146840000Y-91430000D01*
X131449999Y-61067999D02*
X131997997Y-60520001D01*
X135410000Y-58700000D02*
X138630010Y-55479990D01*
X152320000Y-71512002D02*
X152320000Y-72400000D01*
G04 #@! TO.N,/RXD0*
X142675000Y-66878000D02*
X142675000Y-67200000D01*
X141079843Y-65282843D02*
X142675000Y-66878000D01*
X140082843Y-65282843D02*
X141079843Y-65282843D01*
G04 #@! TO.N,/RXD1*
X141700000Y-66495002D02*
X141004998Y-65800000D01*
X141700000Y-67305002D02*
X141700000Y-66495002D01*
G04 #@! TO.N,/TXD3*
X136823638Y-64673638D02*
X136823638Y-62426362D01*
X138712001Y-60537999D02*
X139289999Y-60537999D01*
X139289999Y-60537999D02*
X139587998Y-60240000D01*
X137420000Y-65270000D02*
X136823638Y-64673638D01*
X139587998Y-60240000D02*
X140000000Y-60240000D01*
X136823638Y-62426362D02*
X138712001Y-60537999D01*
G04 #@! TO.N,/TXD1*
X138511709Y-61264646D02*
X138482562Y-61325172D01*
X139340456Y-61414980D02*
X139273277Y-61414980D01*
X138129331Y-62060652D02*
X138076809Y-62018767D01*
X137863826Y-62973531D02*
X137821942Y-63026055D01*
X138799317Y-61126143D02*
X138732138Y-61126143D01*
X139518999Y-61328999D02*
X139466476Y-61370884D01*
X138511709Y-61583865D02*
X138553595Y-61636388D01*
X138553595Y-61636388D02*
X138670469Y-61753262D01*
X138467613Y-61390666D02*
X138467613Y-61457845D01*
X137705067Y-62484916D02*
X137821941Y-62601790D01*
X137663181Y-62432393D02*
X137705067Y-62484916D01*
X138732138Y-61126143D02*
X138666644Y-61141091D01*
X137619085Y-62306373D02*
X137634034Y-62371867D01*
X137863826Y-62654312D02*
X137892974Y-62714838D01*
X137073648Y-63774350D02*
X137073648Y-64173503D01*
X137907922Y-62847511D02*
X137892974Y-62913005D01*
X139405950Y-61400031D02*
X139340456Y-61414980D01*
X138246206Y-62177527D02*
X138129331Y-62060652D01*
X138756450Y-61931804D02*
X138756450Y-61998983D01*
X138467613Y-61457845D02*
X138482562Y-61523339D01*
X137907922Y-62780332D02*
X137907922Y-62847511D01*
X137883610Y-61974671D02*
X137818116Y-61989619D01*
X138482562Y-61523339D02*
X138511709Y-61583865D01*
X137634034Y-62173700D02*
X137619085Y-62239194D01*
X139607998Y-61240000D02*
X139518999Y-61328999D01*
X138606118Y-61170239D02*
X138553595Y-61212124D01*
X138482562Y-61325172D02*
X138467613Y-61390666D01*
X139147257Y-61370884D02*
X139094734Y-61328999D01*
X140060000Y-61240000D02*
X139607998Y-61240000D01*
X137663181Y-62113174D02*
X137634034Y-62173700D01*
X138553595Y-61212124D02*
X138511709Y-61264646D01*
X138491928Y-62263508D02*
X138424749Y-62263508D01*
X137619085Y-62239194D02*
X137619085Y-62306373D01*
X138756450Y-61998983D02*
X138741502Y-62064477D01*
X139273277Y-61414980D02*
X139207783Y-61400031D01*
X139094734Y-61328999D02*
X138977859Y-61212124D01*
X137821942Y-63026055D02*
X137715878Y-63132120D01*
X138741502Y-62064477D02*
X138712354Y-62125003D01*
X138864811Y-61141091D02*
X138799317Y-61126143D01*
X138016283Y-61989619D02*
X137950789Y-61974671D01*
X138977859Y-61212124D02*
X138925337Y-61170239D01*
X138741502Y-61866310D02*
X138756450Y-61931804D01*
X137634034Y-62371867D02*
X137663181Y-62432393D01*
X138557422Y-62248559D02*
X138491928Y-62263508D01*
X138076809Y-62018767D02*
X138016283Y-61989619D01*
X139466476Y-61370884D02*
X139405950Y-61400031D01*
X137950789Y-61974671D02*
X137883610Y-61974671D01*
X138666644Y-61141091D02*
X138606118Y-61170239D01*
X137715878Y-63132120D02*
X137073648Y-63774350D01*
X137892974Y-62714838D02*
X137907922Y-62780332D01*
X138670471Y-62177527D02*
X138617948Y-62219412D01*
X138712354Y-62125003D02*
X138670470Y-62177527D01*
X137705067Y-62060652D02*
X137663181Y-62113174D01*
X137818116Y-61989619D02*
X137757590Y-62018767D01*
X138925337Y-61170239D02*
X138864811Y-61141091D01*
X138670469Y-61753262D02*
X138712354Y-61805784D01*
X138359255Y-62248559D02*
X138298729Y-62219412D01*
X138712354Y-61805784D02*
X138741502Y-61866310D01*
X137073648Y-64173503D02*
X137298647Y-64398502D01*
X137892974Y-62913005D02*
X137863826Y-62973531D01*
X137757590Y-62018767D02*
X137705067Y-62060652D01*
X138617948Y-62219412D02*
X138557422Y-62248559D01*
X138424749Y-62263508D02*
X138359255Y-62248559D01*
X138298729Y-62219412D02*
X138246206Y-62177527D01*
X137821941Y-62601790D02*
X137863826Y-62654312D01*
X139207783Y-61400031D02*
X139147257Y-61370884D01*
X138670470Y-62177527D02*
X138670471Y-62177527D01*
G04 #@! TO.N,/TXD2*
X140640000Y-62620000D02*
X140640000Y-60930000D01*
X138471271Y-64788729D02*
X140640000Y-62620000D01*
X137686235Y-64788729D02*
X138471271Y-64788729D01*
X140640000Y-60930000D02*
X140440000Y-60730000D01*
X140440000Y-60730000D02*
X139690000Y-60730000D01*
G04 #@! TO.N,/TXD0*
X138111015Y-63404053D02*
X138125589Y-63434316D01*
X139504612Y-63335455D02*
X139475464Y-63395981D01*
X139504611Y-63137289D02*
X139519561Y-63202782D01*
X138917659Y-62343393D02*
X138903085Y-62373656D01*
X139518475Y-62140516D02*
X139485728Y-62147990D01*
X138090073Y-63165660D02*
X138069131Y-63191921D01*
X138391478Y-62910538D02*
X138358731Y-62918012D01*
X139433578Y-63448504D02*
X139381056Y-63490390D01*
X138903085Y-62373656D02*
X138895611Y-62406403D01*
X138133063Y-63500652D02*
X138125589Y-63533399D01*
X138047083Y-63288520D02*
X138054557Y-63321267D01*
X139690000Y-61750000D02*
X139690000Y-61990000D01*
X138514338Y-62953528D02*
X138488077Y-62932586D01*
X139122363Y-63519537D02*
X139061838Y-63490389D01*
X138125589Y-63434316D02*
X138133063Y-63467063D01*
X138895611Y-62406403D02*
X138895611Y-62439992D01*
X138090073Y-63589924D02*
X137690000Y-63990000D01*
X138488077Y-62932586D02*
X138457814Y-62918012D01*
X139255036Y-63534486D02*
X139187858Y-63534485D01*
X138938601Y-62529264D02*
X139433578Y-63024240D01*
X138938601Y-62317132D02*
X138917659Y-62343393D01*
X139485728Y-62147990D02*
X139452139Y-62147990D01*
X139475464Y-63395981D02*
X139433578Y-63448504D01*
X139548738Y-62125942D02*
X139518475Y-62140516D01*
X138069131Y-63351530D02*
X138111015Y-63404053D01*
X139187858Y-63534485D02*
X139122363Y-63519537D01*
X138302206Y-62953528D02*
X138090073Y-63165660D01*
X138917659Y-62503002D02*
X138938601Y-62529264D01*
X138054557Y-63222184D02*
X138047083Y-63254931D01*
X139519560Y-63269962D02*
X139504612Y-63335455D01*
X138111015Y-63563662D02*
X138090073Y-63589924D01*
X139519561Y-63202782D02*
X139519560Y-63269962D01*
X139207259Y-62069483D02*
X139176996Y-62084057D01*
X139690000Y-61990000D02*
X139575000Y-62105000D01*
X138903085Y-62472739D02*
X138917659Y-62503002D01*
X139381056Y-63490390D02*
X139320531Y-63519536D01*
X139240006Y-62062009D02*
X139207259Y-62069483D01*
X139575000Y-62105000D02*
X139548738Y-62125942D01*
X138069131Y-63191921D02*
X138054557Y-63222184D01*
X139389129Y-62125942D02*
X139336605Y-62084057D01*
X138425067Y-62910538D02*
X138391478Y-62910538D01*
X138133063Y-63467063D02*
X138133063Y-63500652D01*
X138125589Y-63533399D02*
X138111015Y-63563662D01*
X139306342Y-62069483D02*
X139273595Y-62062009D01*
X138457814Y-62918012D02*
X138425067Y-62910538D01*
X139336605Y-62084057D02*
X139306342Y-62069483D01*
X139475463Y-63076763D02*
X139504611Y-63137289D01*
X138895611Y-62439992D02*
X138903085Y-62472739D01*
X138358731Y-62918012D02*
X138328468Y-62932586D01*
X139273595Y-62062009D02*
X139240006Y-62062009D01*
X139452139Y-62147990D02*
X139419392Y-62140516D01*
X139320531Y-63519536D02*
X139255036Y-63534486D01*
X139150734Y-62105000D02*
X138938601Y-62317132D01*
X138054557Y-63321267D02*
X138069131Y-63351530D01*
X139061838Y-63490389D02*
X139009314Y-63448504D01*
X139419392Y-62140516D02*
X139389129Y-62125942D01*
X139176996Y-62084057D02*
X139150734Y-62105000D01*
X138047083Y-63254931D02*
X138047083Y-63288520D01*
X138328468Y-62932586D02*
X138302206Y-62953528D01*
X139009314Y-63448504D02*
X138514338Y-62953528D01*
X139433578Y-63024240D02*
X139475463Y-63076763D01*
D30*
G04 #@! TO.N,/uC_USB_D+*
X140956799Y-51772304D02*
X140921263Y-51828859D01*
X158041039Y-57146237D02*
X158041039Y-53846603D01*
X158435001Y-57540199D02*
X158041039Y-57146237D01*
X140284246Y-51891903D02*
X140262186Y-51828859D01*
X140659822Y-52249073D02*
X140593450Y-52256551D01*
X141123627Y-51667479D02*
X141060583Y-51689539D01*
X140590000Y-52256551D02*
X140523627Y-52249073D01*
X140122866Y-51689539D02*
X140059822Y-51667479D01*
X141004028Y-51725075D02*
X140956799Y-51772304D01*
X140356799Y-52144248D02*
X140321263Y-52087693D01*
X140921263Y-51828859D02*
X140899203Y-51891903D01*
X141190000Y-51660000D02*
X141123627Y-51667479D01*
X140404028Y-52191477D02*
X140356799Y-52144248D01*
X155854436Y-51660000D02*
X141190000Y-51660000D01*
X140884246Y-52024649D02*
X140862186Y-52087693D01*
X158041039Y-53846603D02*
X155854436Y-51660000D01*
X124610000Y-59445564D02*
X124045564Y-60010000D01*
X140862186Y-52087693D02*
X140826650Y-52144248D01*
X140179421Y-51725075D02*
X140122866Y-51689539D01*
X123265000Y-60010000D02*
X123100000Y-60175000D01*
X140226650Y-51772304D02*
X140179421Y-51725075D01*
X140899203Y-51891903D02*
X140884246Y-52024649D01*
X124610000Y-56295564D02*
X124610000Y-59445564D01*
X162485000Y-70030000D02*
X160424436Y-70030000D01*
X140826650Y-52144248D02*
X140779421Y-52191477D01*
X158041039Y-67646603D02*
X158041039Y-61185001D01*
X124045564Y-60010000D02*
X123265000Y-60010000D01*
X140722866Y-52227013D02*
X140659822Y-52249073D01*
X139993450Y-51660000D02*
X129245564Y-51660000D01*
X158435001Y-60884801D02*
X158435001Y-57540199D01*
X140460583Y-52227013D02*
X140404028Y-52191477D01*
X140523627Y-52249073D02*
X140460583Y-52227013D01*
X140262186Y-51828859D02*
X140226650Y-51772304D01*
X129245564Y-51660000D02*
X124610000Y-56295564D01*
X140299203Y-52024649D02*
X140284246Y-51891903D01*
X140779421Y-52191477D02*
X140722866Y-52227013D01*
X140593450Y-52256551D02*
X140590000Y-52256551D01*
X158134801Y-61185001D02*
X158435001Y-60884801D01*
X140321263Y-52087693D02*
X140299203Y-52024649D01*
X140059822Y-51667479D02*
X139993450Y-51660000D01*
X160424436Y-70030000D02*
X158041039Y-67646603D01*
X141060583Y-51689539D02*
X141004028Y-51725075D01*
X158041039Y-61185001D02*
X158134801Y-61185001D01*
X162650000Y-70195000D02*
X162485000Y-70030000D01*
G04 #@! TO.N,/uC_USB_D-*
X123100000Y-59625000D02*
X123265000Y-59790000D01*
X124390000Y-56204436D02*
X129154436Y-51440000D01*
X123954436Y-59790000D02*
X124390000Y-59354436D01*
X158654991Y-57449075D02*
X158654991Y-60975925D01*
X160515564Y-69810000D02*
X162485000Y-69810000D01*
X158261039Y-53755475D02*
X158261039Y-57055123D01*
X158261039Y-57055123D02*
X158654991Y-57449075D01*
X158654991Y-60975925D02*
X158261039Y-61369877D01*
X162485000Y-69810000D02*
X162650000Y-69645000D01*
X124390000Y-59354436D02*
X124390000Y-56204436D01*
X158261039Y-61369877D02*
X158261039Y-67555475D01*
X155945564Y-51440000D02*
X158261039Y-53755475D01*
X129154436Y-51440000D02*
X155945564Y-51440000D01*
X158261039Y-67555475D02*
X160515564Y-69810000D01*
X123265000Y-59790000D02*
X123954436Y-59790000D01*
D31*
G04 #@! TO.N,/USB ETH/EEPROM_CS*
X154182999Y-72425001D02*
X158449999Y-72425001D01*
X158449999Y-72425001D02*
X159750000Y-71125000D01*
X151999999Y-69857999D02*
X151999999Y-70242001D01*
X148725000Y-65900000D02*
X148725000Y-66583000D01*
X151999999Y-70242001D02*
X154182999Y-72425001D01*
X148725000Y-66583000D02*
X151999999Y-69857999D01*
G04 #@! TO.N,Net-(U5-Pad3)*
X149400000Y-66492002D02*
X152557997Y-69649999D01*
X149400000Y-65900000D02*
X149400000Y-66492002D01*
X153049999Y-69649999D02*
X155425000Y-72025000D01*
X152557997Y-69649999D02*
X153049999Y-69649999D01*
G04 #@! TO.N,/LAN_MDC*
X125150021Y-63985548D02*
X123240000Y-65895569D01*
X149310000Y-56530000D02*
X149310000Y-55920000D01*
X123240000Y-65895569D02*
X123240000Y-65980000D01*
X132840000Y-54330000D02*
X125150021Y-62019979D01*
X149310000Y-55920000D02*
X146860000Y-53470000D01*
X136303566Y-54330000D02*
X132840000Y-54330000D01*
X125150021Y-62019979D02*
X125150021Y-63985548D01*
X137163566Y-53470000D02*
X136303566Y-54330000D01*
X146860000Y-53470000D02*
X137163566Y-53470000D01*
G04 #@! TO.N,/LAN_MDIO*
X124900011Y-60957987D02*
X124900011Y-63881991D01*
X136260000Y-54020000D02*
X131837998Y-54020000D01*
X131837998Y-54020000D02*
X124900011Y-60957987D01*
X150030000Y-56270000D02*
X146950000Y-53190000D01*
X123282002Y-65500000D02*
X122920000Y-65500000D01*
X124900011Y-63881991D02*
X123282002Y-65500000D01*
X137090000Y-53190000D02*
X136260000Y-54020000D01*
X150030000Y-56540000D02*
X150030000Y-56270000D01*
X146950000Y-53190000D02*
X137090000Y-53190000D01*
G04 #@! TO.N,/~LAN_PHY_INT*
X152900000Y-65910000D02*
X152900000Y-58457998D01*
X124650001Y-60839999D02*
X124650001Y-63539999D01*
X152900000Y-58457998D02*
X147317001Y-52874999D01*
X132615001Y-52874999D02*
X124650001Y-60839999D01*
X147317001Y-52874999D02*
X132615001Y-52874999D01*
X124650001Y-63539999D02*
X123180000Y-65010000D01*
D28*
G04 #@! TO.N,/ETH_SDO*
X127234999Y-65695999D02*
X127306801Y-65624197D01*
X127234999Y-65695999D02*
X127234999Y-68574990D01*
X127306801Y-65624197D02*
X127306801Y-64817799D01*
X127234999Y-68574990D02*
X124419989Y-71390000D01*
X127306801Y-62296801D02*
X127306801Y-64817799D01*
G04 #@! TO.N,/ETH_SCL*
X125015617Y-66763385D02*
X120999454Y-70779548D01*
X120999454Y-70779548D02*
X117600452Y-70779548D01*
X125015617Y-64685638D02*
X125015617Y-66763385D01*
G04 #@! TO.N,/~ETH_SCS*
X125524999Y-64814001D02*
X125524999Y-63685738D01*
X125945001Y-66824001D02*
X125945001Y-65234003D01*
X125524999Y-63685738D02*
X126019675Y-63191062D01*
X117640000Y-71340000D02*
X121130998Y-71340000D01*
X125945001Y-65234003D02*
X125524999Y-64814001D01*
X121130998Y-71340000D02*
X125390998Y-67080000D01*
X125689002Y-67080000D02*
X125945001Y-66824001D01*
X125390998Y-67080000D02*
X125689002Y-67080000D01*
G04 #@! TO.N,/CLK_25M*
X138559002Y-59600000D02*
X138960000Y-59600000D01*
X127860000Y-67690000D02*
X128720000Y-66830000D01*
X128720000Y-66830000D02*
X128720000Y-64147140D01*
X129797140Y-63070000D02*
X135089002Y-63070000D01*
X128720000Y-64147140D02*
X129797140Y-63070000D01*
X135089002Y-63070000D02*
X138559002Y-59600000D01*
G04 #@! TD*
M02*
