M48
; DRILL file {KiCad 5.99.0-unknown-r23941-4f651901} date Mon Nov 30 00:39:57 2020
; FORMAT={-:-/ absolute / inch / decimal}
; #@! TF.CreationDate,2020-11-30T00:39:57+01:00
; #@! TF.GenerationSoftware,Kicad,Pcbnew,5.99.0-unknown-r23941-4f651901
FMAT,2
INCH
T1C0.0079
T2C0.0197
T3C0.0236
T4C0.0350
T5C0.0404
T6C0.0618
T7C0.1260
T8C0.0354
T9C0.1260
%
G90
G05
T1
X4.4075Y-2.6476
X4.4191Y-2.5915
X4.4331Y-2.6831
X4.4526Y-2.5069
X4.4943Y-2.5787
X4.502Y-2.8642
X4.5037Y-2.5994
X4.5059Y-2.624
X4.5374Y-2.6969
X4.5413Y-2.439
X4.5512Y-2.7362
X4.5904Y-2.3927
X4.6299Y-2.7866
X4.6311Y-2.8331
X4.6315Y-2.8087
X4.7636Y-2.7372
X4.766Y-2.3959
X4.7913Y-2.3858
X4.7992Y-2.7264
X4.8016Y-3.687
X4.815Y-2.2185
X4.8376Y-2.4597
X4.8394Y-2.5787
X4.8445Y-2.5
X4.8465Y-2.3474
X4.8465Y-2.3691
X4.8496Y-2.5594
X4.852Y-2.5976
X4.8561Y-2.4793
X4.8709Y-2.3157
X4.878Y-2.752
X4.8917Y-2.4075
X4.8984Y-2.8106
X4.9219Y-2.5467
X4.9228Y-2.9508
X4.9228Y-2.9736
X4.9398Y-2.6965
X4.9406Y-2.624
X4.9409Y-2.1122
X4.9409Y-2.6614
X4.9413Y-2.7346
X4.9417Y-2.5886
X4.9587Y-2.5437
X4.9614Y-2.4878
X5.0121Y-2.4526
X5.0173Y-3.3177
X5.0173Y-3.3406
X5.026Y-2.6429
X5.0264Y-2.6189
X5.028Y-2.5925
X5.0303Y-2.5409
X5.0339Y-2.665
X5.0346Y-2.7146
X5.0398Y-3.1535
X5.0398Y-3.1764
X5.0461Y-2.8354
X5.0591Y-2.2815
X5.061Y-2.7791
X5.0972Y-2.3657
X5.1181Y-2.2815
X5.1299Y-2.8957
X5.1673Y-2.8291
X5.1795Y-3.4091
X5.1883Y-2.4387
X5.1909Y-2.4118
X5.2024Y-3.4091
X5.2031Y-2.3264
X5.2138Y-2.9201
X5.2146Y-2.8378
X5.2157Y-2.3665
X5.2244Y-2.4539
X5.2268Y-2.9531
X5.2496Y-2.9531
X5.2516Y-2.3669
X5.2547Y-2.4531
X5.2606Y-2.9197
X5.2622Y-2.8402
X5.2669Y-2.2646
X5.2835Y-2.9295
X5.2835Y-2.9524
X5.2865Y-2.4545
X5.2913Y-2.0984
X5.313Y-3.6677
X5.326Y-2.4508
X5.3278Y-2.0974
X5.3622Y-2.8059
X5.363Y-2.3035
X5.3654Y-2.4626
X5.3736Y-2.8807
X5.3736Y-2.9035
X5.4026Y-2.6142
X5.4055Y-2.5354
X5.4055Y-2.7087
X5.4102Y-2.5697
X5.4197Y-2.3071
X5.4207Y-2.5507
X5.4209Y-2.5193
X5.4565Y-2.8329
X5.4606Y-2.7742
X5.4705Y-2.0551
X5.4705Y-2.1535
X5.4709Y-2.3465
X5.4754Y-2.5591
X5.489Y-2.7307
X5.4996Y-2.3909
X5.4996Y-2.4311
X5.501Y-2.2146
X5.5118Y-2.3717
X5.5142Y-2.411
X5.5151Y-2.5702
X5.5398Y-3.6681
X5.5514Y-2.5906
X5.5591Y-2.1496
X5.5608Y-2.2397
X5.574Y-2.8543
X5.5758Y-2.1348
X5.5787Y-2.6498
X5.5984Y-2.3366
X5.6024Y-2.5
X5.6102Y-2.2638
X5.6102Y-2.2992
X5.6105Y-2.4216
X5.6122Y-2.1348
X5.6171Y-2.6457
X5.6307Y-3.6063
X5.6453Y-2.7059
X5.6476Y-2.6713
X5.6748Y-2.8594
X5.685Y-2.3406
X5.686Y-3.5689
X5.687Y-3.188
X5.689Y-2.4213
X5.689Y-2.5
X5.6909Y-2.1575
X5.7165Y-2.2579
X5.7244Y-2.9528
X5.7244Y-3.3297
X5.7283Y-2.1594
X5.749Y-2.7972
X5.7618Y-2.6594
X5.7657Y-2.1594
X5.7785Y-2.7579
X5.7785Y-2.8376
X5.7835Y-2.3051
X5.8031Y-2.1594
X5.8553Y-2.5945
X5.8638Y-2.8614
X5.8709Y-3.6697
X5.8783Y-2.2256
X5.8819Y-2.5945
X5.8858Y-2.6811
X5.8866Y-2.8614
X5.9067Y-2.226
X5.9154Y-2.7106
X5.9409Y-2.1555
X5.9409Y-2.2461
X5.9409Y-2.6535
X5.9685Y-2.6516
X5.9713Y-2.8795
X6.0Y-2.2461
X6.0Y-2.7579
X6.0197Y-2.5949
X6.0236Y-2.1919
X6.0713Y-2.8787
X6.0748Y-2.0945
X6.0748Y-2.7343
X6.0768Y-2.2677
X6.0945Y-2.4114
X6.0945Y-3.6701
X6.0984Y-2.5217
X6.115Y-2.7177
X6.1177Y-2.6161
X6.1181Y-2.1339
X6.1191Y-2.8356
X6.1205Y-2.3679
X6.1205Y-2.3896
X6.125Y-2.7992
X6.1471Y-2.5034
X6.1624Y-2.5187
X6.185Y-2.3051
X6.2185Y-2.3937
X6.2224Y-2.3425
X6.2602Y-2.4736
X6.2701Y-2.648
X6.2854Y-2.7628
X6.2894Y-2.8002
X6.3035Y-2.5724
X6.322Y-2.3555
X6.3229Y-2.3771
X6.3366Y-2.674
X6.3394Y-2.4736
X6.3409Y-2.0142
X6.3435Y-2.7904
X6.3457Y-2.2268
X6.3535Y-2.1374
X6.3579Y-2.0138
X6.3804Y-2.5766
X6.3898Y-2.1378
X6.3913Y-2.2268
X6.4031Y-2.0921
X6.4035Y-2.7419
X6.4035Y-2.7636
X6.4228Y-2.2268
X6.4281Y-2.6729
X6.4358Y-2.8539
X6.45Y-2.2268
X6.4516Y-2.635
X6.4799Y-2.2272
X6.4894Y-2.6988
X6.4906Y-2.7673
X6.5087Y-2.8343
X6.5252Y-2.7331
X6.5346Y-2.0976
X6.535Y-2.1988
X6.5535Y-2.6179
X6.561Y-2.7693
X6.5614Y-2.6965
X6.5752Y-2.6179
X6.5783Y-3.6874
X6.597Y-2.4939
X6.5972Y-2.8535
X6.5976Y-2.4362
X6.599Y-2.5554
X6.613Y-2.2772
X6.6244Y-2.1945
X6.635Y-2.7429
X6.6421Y-2.178
X6.6717Y-2.663
X6.678Y-2.178
X6.6858Y-2.7531
X6.6992Y-2.4949
X6.7028Y-2.4354
X6.7075Y-2.5685
X6.7209Y-2.8429
X6.7444Y-2.4844
X6.7444Y-2.5061
X6.75Y-2.6138
X6.7528Y-2.3772
X6.8016Y-2.6142
X6.8024Y-2.3752
X6.8531Y-2.6169
X6.8539Y-2.374
X6.861Y-2.4563
X6.8649Y-2.4844
X6.8649Y-2.5061
X6.9295Y-2.7213
X7.0496Y-2.7799
X6.3937Y-2.387
X6.3937Y-2.4343
X6.3937Y-2.4815
X6.4173Y-2.387
X6.4173Y-2.4343
X6.4173Y-2.4815
X5.7839Y-2.3417
X5.1516Y-2.7087
X5.7839Y-2.45
X5.9463Y-2.3959
X5.1043Y-2.5197
X5.1043Y-2.5669
X5.1043Y-2.6142
X5.1043Y-2.7087
X5.1516Y-2.6142
X5.7839Y-2.5041
X5.838Y-2.5583
X6.0004Y-2.3417
X5.1043Y-2.6614
X5.7839Y-2.3959
X5.7839Y-2.5583
X5.838Y-2.3417
X5.838Y-2.3959
X5.8921Y-2.3959
X6.0004Y-2.3959
X5.3406Y-2.7087
X5.838Y-2.45
X5.1988Y-2.6614
X5.838Y-2.5041
X5.2461Y-2.5197
X5.8921Y-2.3417
X5.3406Y-2.7559
X5.8921Y-2.45
X5.8921Y-2.5041
X5.8921Y-2.5583
X5.9463Y-2.3417
X5.9463Y-2.45
X5.9463Y-2.5041
X5.9463Y-2.5583
X5.1043Y-2.7559
X5.1516Y-2.5197
X5.1516Y-2.5669
X5.1516Y-2.6614
X5.1516Y-2.7559
X5.1988Y-2.5197
X5.1988Y-2.5669
X5.1988Y-2.6142
X5.1988Y-2.7087
X5.1988Y-2.7559
X5.2461Y-2.5669
X5.2461Y-2.6142
X5.2461Y-2.6614
X5.2461Y-2.7087
X5.2461Y-2.7559
X5.2933Y-2.5197
X5.2933Y-2.5669
X6.0004Y-2.5041
X5.2933Y-2.6142
X6.0004Y-2.45
X5.2933Y-2.6614
X5.2933Y-2.7087
X5.2933Y-2.7559
X6.0004Y-2.5583
X5.3406Y-2.5197
X5.3406Y-2.5669
X5.3406Y-2.6142
X5.3406Y-2.6614
T2
X4.3839Y-3.7894
X6.8445Y-2.1161
X6.8722Y-2.0493
X6.8722Y-2.183
X6.939Y-2.0217
X6.939Y-2.2106
X7.0058Y-2.0493
X7.0058Y-2.183
X7.0335Y-2.1161
X4.4115Y-3.7226
X4.4115Y-3.8562
X4.4783Y-3.6949
X4.4783Y-3.8839
X4.5452Y-3.7226
X4.5452Y-3.8562
X4.5728Y-3.7894
X4.3839Y-2.1161
X4.4115Y-2.0493
X4.4115Y-2.183
X4.4783Y-2.0217
X4.4783Y-2.2106
X4.5452Y-2.0493
X4.5452Y-2.183
X4.5728Y-2.1161
X6.8445Y-3.7894
X6.8722Y-3.7226
X6.8722Y-3.8562
X6.939Y-3.6949
X6.939Y-3.8839
X7.0058Y-3.7226
X7.0058Y-3.8562
X7.0335Y-3.7894
T4
X5.3776Y-3.0606
X5.3776Y-3.1406
X5.3776Y-3.2206
X5.3776Y-3.3006
X5.3776Y-3.3806
X5.3776Y-3.4606
X5.4776Y-3.0206
X5.4776Y-3.1006
X5.4776Y-3.1806
X5.4776Y-3.3406
X5.4776Y-3.4206
X5.4776Y-3.5006
X5.9331Y-3.0218
X5.9331Y-3.1018
X5.9331Y-3.1818
X5.9331Y-3.3418
X5.9331Y-3.4218
X5.9331Y-3.5018
X6.0331Y-3.0618
X6.0331Y-3.1418
X6.0331Y-3.2218
X6.0331Y-3.3018
X6.0331Y-3.3818
X6.0331Y-3.4618
T5
X5.5776Y-3.0206
X5.5776Y-3.1206
X5.5776Y-3.4006
X5.5776Y-3.5006
X5.8331Y-3.0218
X5.8331Y-3.1218
X5.8331Y-3.4018
X5.8331Y-3.5018
T6
X4.6526Y-2.9431
X4.6526Y-3.5781
X6.7581Y-2.9443
X6.7581Y-3.5793
T7
X4.4783Y-3.7894
X6.939Y-2.1161
X4.4783Y-2.1161
X6.939Y-3.7894
T8
X4.902Y-2.089
X5.0988Y-2.089
T9
X4.7776Y-3.0106
X4.7776Y-3.5106
X6.6331Y-3.0118
X6.6331Y-3.5118
T3
G00X6.7728Y-2.3252
M15
G01X6.8122Y-2.3252
M16
G05
G00X6.7728Y-2.6654
M15
G01X6.8122Y-2.6654
M16
G05
G00X6.974Y-2.3252
M15
G01X7.0331Y-2.3252
M16
G05
G00X6.974Y-2.6654
M15
G01X7.0331Y-2.6654
M16
G05
T0
M30
